<?xml version="1.0" encoding="UTF-8" standalone="no"?>
<svg
   xmlns:dc="http://purl.org/dc/elements/1.1/"
   xmlns:cc="http://creativecommons.org/ns#"
   xmlns:rdf="http://www.w3.org/1999/02/22-rdf-syntax-ns#"
   xmlns:svg="http://www.w3.org/2000/svg"
   xmlns="http://www.w3.org/2000/svg"
   xmlns:xlink="http://www.w3.org/1999/xlink"
   width="152.6555mm"
   height="75.391327mm"
   viewBox="0 0 152.65552 75.391325"
   version="1.1"
   id="svg8">
  <defs
     id="defs2">
    <linearGradient
       id="linearGradient1515">
      <stop
         style="stop-color:#fa3030;stop-opacity:1"
         offset="0"
         id="stop1511" />
      <stop
         style="stop-color:#b6110e;stop-opacity:1"
         offset="1"
         id="stop1513" />
    </linearGradient>
    <clipPath
       id="clipPath3035"
       clipPathUnits="userSpaceOnUse">
      <path
         id="path3037"
         d="m -0.30829,-8.20527 h 5.06393 v 9.7702 h -5.06393 z" />
    </clipPath>
    <clipPath
       id="clipPath3025"
       clipPathUnits="userSpaceOnUse">
      <path
         id="path3027"
         d="M 0,0 H 593.99994 V 791.99994 H 0 Z" />
    </clipPath>
    <clipPath
       id="clipPath3017"
       clipPathUnits="userSpaceOnUse">
      <path
         id="path3019"
         d="m 0,650.2679 h 141.732 v 141.732 H 0 Z" />
    </clipPath>
    <clipPath
       id="clipPath3150"
       clipPathUnits="userSpaceOnUse">
      <path
         id="path3152"
         d="m -0.38789,-0.47304 h 5.87003 v 9.9 h -5.87003 z" />
    </clipPath>
    <clipPath
       id="clipPath3140"
       clipPathUnits="userSpaceOnUse">
      <path
         id="path3142"
         d="M 0,0 H 593.99994 V 791.99994 H 0 Z" />
    </clipPath>
    <clipPath
       id="clipPath3132"
       clipPathUnits="userSpaceOnUse">
      <path
         id="path3134"
         d="M 1,0 H 118.842 V 119.5499 H 1 Z" />
    </clipPath>
    <clipPath
       id="clipPath3439"
       clipPathUnits="userSpaceOnUse">
      <path
         id="path3441"
         d="m 50.441,691.8 h 99 v -56.76 h -99 z"
         style="clip-rule:evenodd" />
    </clipPath>
    <clipPath
       id="clipPath3150-2"
       clipPathUnits="userSpaceOnUse">
      <path
         id="path3152-8"
         d="m -0.38789,-0.47304 h 5.87003 v 9.9 h -5.87003 z" />
    </clipPath>
    <filter
       style="color-interpolation-filters:sRGB"
       id="filter1173">
      <feFlood
         flood-opacity="0.498039"
         flood-color="rgb(0,0,0)"
         result="flood"
         id="feFlood1163" />
      <feComposite
         in="flood"
         in2="SourceGraphic"
         operator="in"
         result="composite1"
         id="feComposite1165" />
      <feGaussianBlur
         in="composite1"
         stdDeviation="3"
         result="blur"
         id="feGaussianBlur1167" />
      <feOffset
         dx="6"
         dy="6"
         result="offset"
         id="feOffset1169" />
      <feComposite
         in="SourceGraphic"
         in2="offset"
         operator="over"
         result="composite2"
         id="feComposite1171" />
    </filter>
    <linearGradient
       id="linearGradient6760">
      <stop
         style="stop-color:#030303;stop-opacity:1"
         offset="0"
         id="stop6762" />
      <stop
         style="stop-color:#484848;stop-opacity:1"
         offset="1"
         id="stop6764" />
    </linearGradient>
    <linearGradient
       id="linearGradient6754">
      <stop
         id="stop6756"
         offset="0"
         style="stop-color:#ffd3d3;stop-opacity:1" />
      <stop
         style="stop-color:#ff6f6f;stop-opacity:0.37647059;"
         offset="0.76420587"
         id="stop6768" />
      <stop
         id="stop6758"
         offset="1"
         style="stop-color:#ff3333;stop-opacity:0" />
    </linearGradient>
    <linearGradient
       x1="345.06525"
       y1="1071.3171"
       x2="345.06525"
       y2="-135.11966"
       id="linearGradient3049"
       gradientUnits="userSpaceOnUse"
       gradientTransform="scale(1.58195,0.632131)">
      <stop
         id="stop3051"
         style="stop-color:#912420;stop-opacity:1"
         offset="0" />
      <stop
         id="stop3053"
         style="stop-color:#ce332d;stop-opacity:1"
         offset="0.48934084" />
    </linearGradient>
    <linearGradient
       gradientTransform="scale(1.58195,0.632131)"
       gradientUnits="userSpaceOnUse"
       id="linearGradient3039"
       y2="-135.11966"
       x2="345.06525"
       y1="1071.3171"
       x1="345.06525">
      <stop
         offset="0"
         style="stop-color:#912420;stop-opacity:1"
         id="stop3041" />
      <stop
         offset="0.96720499"
         style="stop-color:#ffeeee;stop-opacity:1"
         id="stop3045" />
    </linearGradient>
    <linearGradient
       id="linearGradient3014">
      <stop
         id="stop3016"
         style="stop-color:#ffffff;stop-opacity:1"
         offset="0" />
      <stop
         id="stop3018"
         style="stop-color:#b3b3b3;stop-opacity:1"
         offset="1" />
    </linearGradient>
    <linearGradient
       x1="345.06525"
       y1="1071.3171"
       x2="345.06525"
       y2="-135.11966"
       id="g"
       gradientUnits="userSpaceOnUse"
       gradientTransform="scale(1.58195,0.632131)">
      <stop
         id="stop7"
         style="stop-color:#590000;stop-opacity:1"
         offset="0" />
      <stop
         id="stop9"
         style="stop-color:#ff0000;stop-opacity:1"
         offset="0.96720499" />
      <stop
         id="stop11"
         style="stop-color:#ffeeee;stop-opacity:1"
         offset="0.96720499" />
    </linearGradient>
    <linearGradient
       x1="345.06525"
       y1="1071.3171"
       x2="345.06525"
       y2="-135.11966"
       id="linearGradient3774"
       xlink:href="#g"
       gradientUnits="userSpaceOnUse"
       gradientTransform="scale(1.58195,0.632131)" />
    <linearGradient
       x1="339.63776"
       y1="1097.2302"
       x2="339.63776"
       y2="-635.19543"
       id="linearGradient3774-1"
       xlink:href="#g"
       gradientUnits="userSpaceOnUse"
       gradientTransform="matrix(1.58195,0,0,0.632131,320.259,117.629)" />
    <linearGradient
       x1="339.63776"
       y1="1097.2302"
       x2="339.63776"
       y2="-635.19543"
       id="linearGradient3943"
       xlink:href="#g"
       gradientUnits="userSpaceOnUse"
       gradientTransform="matrix(1.58195,0,0,0.632131,-137.182,-82.6614)" />
    <linearGradient
       x1="339.63776"
       y1="1097.2302"
       x2="339.63776"
       y2="-635.19543"
       id="linearGradient3965"
       xlink:href="#g"
       gradientUnits="userSpaceOnUse"
       gradientTransform="matrix(1.58195,0,0,0.632131,6.70141,-52.6713)" />
    <linearGradient
       x1="339.63776"
       y1="1097.2302"
       x2="339.63776"
       y2="-635.19543"
       id="linearGradient4014"
       xlink:href="#g"
       gradientUnits="userSpaceOnUse"
       gradientTransform="matrix(1.58195,0,0,0.632131,-0.584086,0.75571)" />
    <linearGradient
       x1="339.63776"
       y1="1107.8513"
       x2="339.63776"
       y2="-635.19543"
       id="linearGradient4038"
       xlink:href="#linearGradient3039"
       gradientUnits="userSpaceOnUse"
       gradientTransform="matrix(1.58195,0,0,0.632131,-0.584086,0.75571)" />
    <linearGradient
       x1="543.32074"
       y1="441.51886"
       x2="543.32074"
       y2="817.55579"
       id="linearGradient3020"
       xlink:href="#linearGradient3014"
       gradientUnits="userSpaceOnUse" />
    <linearGradient
       xlink:href="#linearGradient6754"
       id="linearGradient6752"
       x1="802.93817"
       y1="313.49374"
       x2="744.25781"
       y2="412.44492"
       gradientUnits="userSpaceOnUse"
       gradientTransform="matrix(0.13737662,0,0,0.13501548,506.44035,-75.402107)" />
    <linearGradient
       xlink:href="#linearGradient6760"
       id="linearGradient6766"
       x1="-248.30176"
       y1="619.42896"
       x2="-249.33778"
       y2="333.60617"
       gradientUnits="userSpaceOnUse"
       gradientTransform="matrix(0.14157643,0,0,0.13855762,504.26365,-75.210979)" />
    <linearGradient
       xlink:href="#linearGradient1515"
       id="linearGradient1517"
       x1="335.91049"
       y1="13.47416"
       x2="335.91049"
       y2="92.001495"
       gradientUnits="userSpaceOnUse"
       gradientTransform="matrix(0.74919196,0,0,0.7536135,279.93341,-48.424089)" />
  </defs>
  <metadata
     id="metadata5">
    <rdf:RDF>
      <cc:Work
         rdf:about="">
        <dc:format>image/svg+xml</dc:format>
        <dc:type
           rdf:resource="http://purl.org/dc/dcmitype/StillImage" />
        <dc:title></dc:title>
      </cc:Work>
    </rdf:RDF>
  </metadata>
  <g
     id="layer1"
     transform="translate(-468.95942,38.269783)">
    <text
       xml:space="preserve"
       style="font-style:normal;font-variant:normal;font-weight:normal;font-stretch:normal;font-size:50.8px;line-height:1.25;font-family:'Helvetica Neue';-inkscape-font-specification:'Helvetica Neue';letter-spacing:0px;word-spacing:0px;stroke-width:0.264583"
       x="-144.86008"
       y="-4.2763124"
       id="text859"><tspan
         id="tspan857"
         x="-144.86008"
         y="-4.2763124"
         style="font-style:normal;font-variant:normal;font-weight:normal;font-stretch:normal;font-family:'Helvetica Neue';-inkscape-font-specification:'Helvetica Neue';stroke-width:0.264583" /></text>
    <text
       xml:space="preserve"
       style="font-style:normal;font-variant:normal;font-weight:normal;font-stretch:normal;font-size:50.8px;line-height:1.25;font-family:Verdana;-inkscape-font-specification:Verdana;letter-spacing:0px;word-spacing:0px;stroke-width:0.264583"
       x="409.67688"
       y="41.228783"
       id="text1549"><tspan
         id="tspan1547"
         x="409.67688"
         y="41.228783"
         style="font-style:normal;font-variant:normal;font-weight:normal;font-stretch:normal;font-family:Verdana;-inkscape-font-specification:Verdana;stroke-width:0.264583" /></text>
    <g
       id="g1545">
      <g
         id="g1537">
        <rect
           style="fill:url(#linearGradient1517);fill-opacity:1;stroke:none;stroke-width:1.02979;stroke-linejoin:round;paint-order:stroke fill markers"
           id="rect1505"
           width="90.020012"
           height="59.179264"
           x="531.59491"
           y="-38.269783"
           ry="12.474386" />
        <path
           style="fill:url(#linearGradient6752);fill-opacity:1;stroke:none;stroke-width:0.13619"
           id="path6750"
           d="m 567.76883,19.687346 c -3.14421,-0.05443 -6.86684,-0.139224 -8.27249,-0.18852 -9.4382,-0.331017 -15.91811,-0.684835 -17.2128,-0.939859 -1.84546,-0.363513 -3.90776,-1.580933 -5.10471,-3.013406 -1.91833,-2.295824 -2.93994,-5.081328 -3.43615,-9.3689961 -1.15363,-9.9682724 -1.12803,-21.5903869 0.0687,-31.2099839 0.52413,-4.212954 1.82811,-7.258642 4.01696,-9.382258 1.24916,-1.211932 0.58034,1.678322 2.18107,1.279201 3.46344,-0.863552 32.3811,-4.385229 48.8758,-4.027825 9.52745,0.20644 19.2345,-0.135317 21.97087,0.168031 3.53883,0.392304 6.54272,2.948722 8.26225,6.337562 1.2983,2.558708 1.19598,3.710929 1.20282,10.057686 0.006,4.880446 -0.14268,9.043858 -0.21679,14.6537901 -0.0887,6.71415525 1.30768,11.3682276 0.65323,14.6890048 -0.69164,3.5095651 -2.32885,6.5023321 -4.44295,8.1215551 -1.63361,1.251211 -3.37301,1.809403 -6.10731,1.959919 -0.81379,0.0448 -1.8428,0.108814 -2.28669,0.142275 -1.57898,0.11899 -10.02745,0.453033 -14.66182,0.579713 -6.88807,0.18829 -18.93714,0.255469 -25.49002,0.142111 z" />
        <path
           d="m 539.07093,-28.759352 v 2.610672 2.606378 l 3.12615,0.03865 3.12616,0.03866 0.0351,16.5571583 c 0.019,9.106437 0.0639,16.6328445 0.10096,16.7289126 0.0521,0.1349423 0.70324,0.1661934 2.84954,0.1374046 l 2.77491,-0.034357 0.0703,-16.6945607 0.0703,-16.6945618 3.2008,-0.03865 3.20078,-0.03865 -0.0395,-2.572028 -0.0395,-2.572028 -9.23795,-0.03864 z m 40.18333,0.0043 V -9.3811206 9.9928166 h 2.52903 2.52901 V 8.6874795 c 0,-0.8651631 0.0547,-1.3053358 0.15807,-1.3053358 0.0858,0 0.65407,0.4560451 1.2645,1.0176479 1.96709,1.8096974 3.67123,2.3093834 5.79568,1.6960764 0.81405,-0.2350102 1.80711,-1.1851422 2.25241,-2.1555206 0.85511,-1.8633945 0.85618,-1.907068 0.85618,-12.3749302 0,-8.5935392 -0.0212,-9.6527322 -0.24149,-10.5800922 -0.70638,-2.973122 -2.24772,-4.274765 -4.83412,-4.08347 -1.45038,0.107277 -2.59318,0.671971 -3.96037,1.962298 -0.59404,0.560641 -1.12752,1.021913 -1.18548,1.021941 -0.058,2.7e-5 -0.10538,-2.844259 -0.10538,-6.320576 v -6.320575 h -2.52901 z m 27.8368,9.626855 c -0.82331,0.01648 -1.64723,0.160715 -2.43681,0.442268 -2.72443,0.971479 -4.3343,2.722379 -4.98341,5.427451 -0.22942,0.956081 -0.25466,1.815914 -0.25466,8.8239007 0,8.5950805 0.0322,8.9459464 0.93081,10.7046145 1.60105,3.1333061 5.61177,4.7672608 9.25552,3.7700168 2.70633,-0.740679 4.57869,-2.5465047 5.28196,-5.0968221 0.12021,-0.4358094 0.25351,-1.6711734 0.29857,-2.7480759 l 0.0834,-1.95800477 h -2.60366 -2.60367 l -0.0659,1.75189907 c -0.0731,1.9951595 -0.28212,2.6786816 -1.02303,3.3148664 -0.7907,0.6789357 -2.24264,0.7258224 -3.18762,0.1030528 -1.12341,-0.7403718 -1.4043,-1.992206 -1.34794,-6.06294226 l 0.0395,-2.88547994 5.39173,-0.038651 5.39173,-0.034344 -0.0746,-4.293868 c -0.0826,-4.7877783 -0.18471,-5.5145323 -1.00983,-7.2137013 -1.22303,-2.518538 -4.14179,-4.065046 -7.08215,-4.006181 z m -48.20946,0.403623 v 12.4393536 c 0,13.5462115 0.0147,13.8381977 0.79031,15.1444755 0.8473,1.4269599 2.8367,1.8740199 4.93072,1.1078182 1.01129,-0.3700296 2.19601,-1.1704274 3.1964,-2.1641099 0.46123,-0.4581382 0.91962,-0.8330103 1.01863,-0.8330103 0.13546,0 0.18002,0.374197 0.18002,1.5114413 v 1.5114428 h 2.52901 2.52904 V -4.3658666 -18.724564 h -2.52904 -2.52901 V -7.6463814 3.4275062 l -1.08889,1.0605852 c -0.86446,0.840359 -1.22793,1.0934887 -1.76065,1.2366338 -0.90554,0.2433208 -1.47502,0.076362 -1.84847,-0.5453207 -0.28179,-0.4690982 -0.28739,-0.6800707 -0.32491,-12.1902932 l -0.0395,-11.7136753 h -2.52462 z m 48.41581,4.07059 c 1.12886,0 1.84051,0.42493 2.32266,1.382624 0.30562,0.607031 0.33934,0.862871 0.38199,3.100173 l 0.0439,2.4389179 h -2.75295 c -2.37397,0 -2.76786,-0.033198 -2.84077,-0.2189869 -0.13032,-0.3321767 0.0514,-4.18422 0.22395,-4.744725 0.40539,-1.317007 1.26509,-1.958003 2.6212,-1.958003 z m -20.24972,0.322039 c 0.79374,-0.02784 1.47684,0.32846 1.84408,1.051999 0.25565,0.503711 0.27289,0.956088 0.30295,8.6392631 0.0289,7.3713379 0.0102,8.1677499 -0.21075,8.7895489 -0.1693,0.4774647 -0.38674,0.7780984 -0.72007,0.9961777 -0.84242,0.5511431 -2.06569,0.375166 -3.17884,-0.4551503 l -0.49175,-0.3649649 v -8.7595008 -8.7637857 l 0.49175,-0.36498 c 0.65993,-0.492256 1.34527,-0.746946 1.96263,-0.768601 z"
           id="rect3947"
           style="opacity:0.753;fill:#a60707;fill-opacity:1;stroke:none;stroke-width:0.138943" />
        <path
           d="m 539.07093,-27.846616 v 2.610674 2.606378 l 3.12615,0.03866 3.12616,0.03865 0.0351,16.5571573 c 0.019,9.1064377 0.0639,16.6328447 0.10096,16.7289117 0.0521,0.134944 0.70324,0.166196 2.84954,0.137405 l 2.77491,-0.03434 0.0703,-16.6945618 0.0703,-16.6945612 3.20079,-0.03866 3.20078,-0.03865 -0.0395,-2.572029 -0.0395,-2.572027 -9.23794,-0.03865 z m 40.18333,0.0043 V -8.4683831 10.905552 h 2.52903 2.52901 V 9.6002157 c 0,-0.8651618 0.0547,-1.3053358 0.15807,-1.3053358 0.0858,0 0.65407,0.4560452 1.26452,1.0176467 1.96708,1.8096984 3.67121,2.3093864 5.79566,1.6960794 0.81405,-0.235012 1.80711,-1.1851441 2.25241,-2.1555237 0.85511,-1.8633921 0.85618,-1.9070673 0.85618,-12.3749289 0,-8.5935414 -0.0212,-9.6527314 -0.24148,-10.5800924 -0.70638,-2.97312 -2.24773,-4.274763 -4.83413,-4.083469 -1.45038,0.107277 -2.59317,0.67197 -3.96037,1.962298 -0.59404,0.560638 -1.12752,1.021912 -1.18548,1.02194 -0.058,2.9e-5 -0.10538,-2.844259 -0.10538,-6.320575 v -6.320574 h -2.52901 z m 27.8368,9.626855 c -0.82331,0.01648 -1.64722,0.160715 -2.43681,0.442266 -2.72443,0.971481 -4.3343,2.72238 -4.98341,5.427452 -0.22942,0.95608 -0.25466,1.815913 -0.25466,8.8238999 0,8.5950805 0.0322,8.9459463 0.93081,10.704615 1.60105,3.1333071 5.61177,4.7672601 9.25552,3.7700161 2.70633,-0.740679 4.57869,-2.5465045 5.28196,-5.096822 0.12021,-0.4358095 0.25351,-1.6711734 0.29857,-2.7480759 l 0.0834,-1.958004 h -2.60366 -2.60366 l -0.0659,1.7518981 c -0.0731,1.9951595 -0.28213,2.6786817 -1.02303,3.3148664 -0.79071,0.6789359 -2.24265,0.7258226 -3.18763,0.1030541 -1.12341,-0.7403718 -1.4043,-1.9922069 -1.34794,-6.062943 l 0.0395,-2.8854802 5.39173,-0.038645 5.39173,-0.034356 -0.0746,-4.293868 c -0.0826,-4.7877785 -0.18472,-5.5145315 -1.00984,-7.2137005 -1.22303,-2.518535 -4.14178,-4.065045 -7.08214,-4.006179 z m -48.20946,0.403622 v 12.4393389 c 0,13.5462102 0.0147,13.8381953 0.79031,15.1444743 0.8473,1.4269598 2.8367,1.8740208 4.93072,1.1078178 1.01129,-0.370029 2.19601,-1.1704269 3.1964,-2.1641095 0.46123,-0.4581383 0.91962,-0.8330103 1.01863,-0.8330103 0.13546,0 0.18002,0.374197 0.18002,1.5114427 v 1.5114421 h 2.52901 2.52904 V -3.4531304 -17.811827 h -2.52904 -2.52901 V -6.7336451 4.3402422 l -1.08888,1.060586 c -0.86447,0.8403581 -1.22794,1.093488 -1.76066,1.2366338 -0.90554,0.2433204 -1.47501,0.076362 -1.84847,-0.5453216 -0.28179,-0.4690979 -0.28739,-0.6800706 -0.32491,-12.1902942 l -0.0395,-11.7136732 h -2.52462 z m 48.41581,4.070588 c 1.12886,0 1.84051,0.42493 2.32266,1.382625 0.30562,0.607031 0.33935,0.862871 0.38199,3.1001746 l 0.0439,2.4389177 h -2.75295 c -2.37397,0 -2.76785,-0.033211 -2.84077,-0.2189881 -0.13032,-0.3321755 0.0514,-4.1842212 0.22395,-4.7447252 0.40539,-1.317007 1.26509,-1.958004 2.62121,-1.958004 z m -20.24972,0.32204 c 0.79374,-0.02784 1.47684,0.328459 1.84408,1.051999 0.25565,0.503711 0.2729,0.956089 0.30295,8.6392633 0.0289,7.3713384 0.0102,8.1677505 -0.21075,8.7895494 -0.1693,0.4774639 -0.38674,0.7780984 -0.72007,0.9961777 -0.84242,0.5511425 -2.06569,0.3751654 -3.17884,-0.4551501 l -0.49175,-0.3649639 v -8.759515 -8.7637874 l 0.49175,-0.364978 c 0.65993,-0.492255 1.34527,-0.746948 1.96263,-0.768604 z"
           id="rect3947-6"
           style="fill:#ffffff;fill-opacity:1;stroke:#ffffff;stroke-width:0.138943;stroke-opacity:1" />
      </g>
      <path
         d="m 497.0375,10.895057 c -2.56723,-0.305108 -4.92534,-1.7833842 -6.06153,-3.7999023 -1.15832,-2.0557863 -1.264,-3.1325093 -1.19583,-12.1840172 0.0528,-7.0111335 0.0712,-7.4506395 0.35522,-8.4546525 0.67685,-2.393274 1.98743,-4.0256 4.02205,-5.009488 2.79232,-1.350293 5.80168,-1.174062 8.4365,0.494046 1.67729,1.061898 2.6966,2.597454 3.24053,4.881722 0.24091,1.011751 0.26394,1.785439 0.26394,8.8676883 0,8.6093707 -0.0427,9.1068938 -0.94342,10.9724473 -0.86772,1.7973752 -2.8297,3.3810154 -4.8771,3.9366414 -0.901,0.244509 -2.4675,0.387372 -3.24036,0.295515 z m 2.24963,-5.6231128 c 0.98337,-0.7340507 0.99031,-0.7943802 1.0448,-9.0891071 0.0423,-6.4420961 0.0188,-7.5368371 -0.18104,-8.4158221 -0.26925,-1.18441 -0.74155,-1.750126 -1.6641,-1.993245 -1.19458,-0.314811 -2.2889,0.354315 -2.6678,1.631262 -0.29189,0.983616 -0.28886,15.5972198 0.003,16.5828335 0.21881,0.7378318 0.92997,1.5463796 1.45693,1.6564272 0.68482,0.1430152 1.5265,-0.013082 2.00779,-0.3723485 z m 14.45637,5.6291208 c -1.42332,-0.185466 -2.25398,-0.72295 -2.82406,-1.8273283 -0.71572,-1.3865213 -0.71535,-1.3784032 -0.71535,-15.1845325 V -18.996651 h 2.87082 2.87081 l 0.0606,11.8763809 c 0.066,12.9025208 0.0462,12.6013783 0.83537,12.7952161 0.72461,0.1779886 1.52573,-0.2020933 2.52555,-1.1982174 l 0.95784,-0.9542957 0.0362,-11.2595446 0.0362,-11.2595393 2.86694,-0.03752 2.86691,-0.03752 V -4.3234412 10.424806 l -0.38934,0.07827 c -0.4697,0.09443 -4.81727,0.08828 -5.16754,-0.0073 -0.21407,-0.05843 -0.24775,-0.249413 -0.24775,-1.4048693 V 7.753626 l -0.81407,0.7756946 c -1.87321,1.7849264 -3.89476,2.6159844 -5.76924,2.3717294 z m -37.25211,-0.481963 c -0.12043,-0.190692 -0.10236,-11.5899332 0.021,-13.2045152 0.15808,-2.070349 -0.19722,-3.698082 -1.71583,-7.8607788 -0.493,-1.351364 -1.38241,-3.970103 -1.97648,-5.819416 -4.29162,-13.359632 -4.06377,-12.575251 -3.65374,-12.578677 2.82691,-0.02362 6.31846,-0.0071 6.35641,0.03001 0.0272,0.02662 0.9463,3.289102 2.04241,7.249943 1.0961,3.960839 2.01096,7.257918 2.033,7.326839 0.022,0.06893 0.66546,-2.238056 1.42982,-5.126629 1.6023,-6.055283 2.50138,-9.398526 2.53578,-9.429323 0.0717,-0.06417 0.86863,-0.079 3.47276,-0.0646 l 2.88241,0.01597 -0.0634,0.450312 c -0.052,0.368149 -2.01863,6.832909 -4.07827,13.405448 -0.22686,0.723965 -0.80044,2.594493 -1.27462,4.156729 -0.47418,1.5622383 -1.04918,3.4179229 -1.27779,4.1237466 l -0.41566,1.2833149 v 8.0253482 c 0,7.5255458 -0.0154,8.0294773 -0.24775,8.0916843 -0.51673,0.13835 -5.97776,0.0705 -6.06991,-0.07541 z"
         id="path19"
         style="fill:#ffffff;fill-opacity:1;stroke:none;stroke-width:0.140058;stroke-miterlimit:4;stroke-dasharray:none;stroke-opacity:1" />
    </g>
    <g
       aria-label="Broadcast Yourself"
       transform="scale(1.0271208,0.97359531)"
       id="text1553"
       style="fill:#ffffff; font-size:17.3453px;line-height:1.6;font-family:Tahoma;-inkscape-font-specification:Tahoma;letter-spacing:-0.116417px;word-spacing:-0.404813px;stroke-width:0.0903397">
      <path
         d="m 466.69053,37.902821 c 0.50301,0.06938 1.30089,0.138762 2.34161,0.138762 1.90799,0 3.22623,-0.346906 4.04146,-1.092754 0.58974,-0.572395 0.98868,-1.335588 0.98868,-2.341615 0,-1.73453 -1.3009,-2.653831 -2.411,-2.931356 v -0.03469 c 1.23152,-0.450978 1.97737,-1.43966 1.97737,-2.567104 0,-0.919301 -0.36425,-1.613113 -0.97134,-2.064091 -0.7285,-0.58974 -1.69984,-0.84992 -3.20888,-0.84992 -1.05806,0 -2.09878,0.104072 -2.7579,0.242834 z m 1.50904,-10.476562 c 0.24283,-0.05204 0.64177,-0.104072 1.33559,-0.104072 1.52638,0 2.5671,0.537705 2.5671,1.907984 0,1.127444 -0.93665,1.960018 -2.53241,1.960018 h -1.37028 z m 0,4.90872 h 1.24886 c 1.6478,0 3.01808,0.659122 3.01808,2.254889 0,1.69984 -1.43966,2.272235 -3.00074,2.272235 -0.5377,0 -0.97133,-0.01734 -1.2662,-0.06938 z"
         style="font-style:normal;font-variant:normal;font-weight:normal;font-stretch:normal;font-family:'Myriad Pro';-inkscape-font-specification:'Myriad Pro';stroke-width:0.0903397"
         id="path1649" />
      <path
         d="m 475.92322,37.937511 h 1.50904 v -4.475087 c 0,-0.26018 0.0347,-0.503014 0.0694,-0.711157 0.20814,-1.14479 0.97133,-1.960019 2.04674,-1.960019 0.20815,0 0.36425,0.01734 0.52036,0.05204 v -1.439659 c -0.13876,-0.03469 -0.26018,-0.05204 -0.43363,-0.05204 -1.02337,0 -1.94268,0.711157 -2.32427,1.838601 h -0.0694 l -0.052,-1.647803 h -1.33559 c 0.052,0.780538 0.0694,1.630458 0.0694,2.61914 z"
         style="font-style:normal;font-variant:normal;font-weight:normal;font-stretch:normal;font-family:'Myriad Pro';-inkscape-font-specification:'Myriad Pro';stroke-width:0.0903397"
         id="path1651" />
      <path
         d="m 484.86104,29.351588 c -2.32427,0 -4.16287,1.647803 -4.16287,4.457742 0,2.653831 1.75188,4.31898 4.02411,4.31898 2.0294,0 4.18022,-1.352934 4.18022,-4.457743 0,-2.567104 -1.63046,-4.318979 -4.04146,-4.318979 z m -0.0347,1.144789 c 1.80391,0 2.51507,1.803912 2.51507,3.226226 0,1.890638 -1.09275,3.260917 -2.54976,3.260917 -1.49169,0 -2.54976,-1.387624 -2.54976,-3.226226 0,-1.595768 0.78054,-3.260917 2.58445,-3.260917 z"
         style="font-style:normal;font-variant:normal;font-weight:normal;font-stretch:normal;font-family:'Myriad Pro';-inkscape-font-specification:'Myriad Pro';stroke-width:0.0903397"
         id="path1653" />
      <path
         d="m 496.60881,32.785957 c 0,-1.682494 -0.62443,-3.434369 -3.19154,-3.434369 -1.05806,0 -2.06409,0.29487 -2.7579,0.745848 l 0.34691,1.006027 c 0.58974,-0.381597 1.40497,-0.624431 2.1855,-0.624431 1.71719,0 1.90799,1.248862 1.90799,1.942674 v 0.173453 c -3.24357,-0.01735 -5.04748,1.092754 -5.04748,3.122154 0,1.214171 0.86726,2.410997 2.5671,2.410997 1.19683,0 2.09878,-0.58974 2.5671,-1.248862 h 0.052 l 0.12142,1.058063 h 1.38762 c -0.10407,-0.572394 -0.13876,-1.283552 -0.13876,-2.012054 z m -1.47435,2.32427 c 0,0.156108 -0.0347,0.329561 -0.0867,0.485669 -0.24283,0.711157 -0.93664,1.404969 -2.0294,1.404969 -0.78054,0 -1.43966,-0.468323 -1.43966,-1.457005 0,-1.630458 1.89064,-1.925328 3.55579,-1.890638 z"
         style="font-style:normal;font-variant:normal;font-weight:normal;font-stretch:normal;font-family:'Myriad Pro';-inkscape-font-specification:'Myriad Pro';stroke-width:0.0903397"
         id="path1655" />
      <path
         d="m 504.67935,25.622348 v 5.012792 h -0.0347 c -0.3816,-0.676467 -1.24887,-1.283552 -2.53242,-1.283552 -2.04674,0 -3.78127,1.717184 -3.76393,4.509778 0,2.549759 1.56108,4.266944 3.59048,4.266944 1.37028,0 2.39365,-0.711158 2.86197,-1.647804 h 0.0347 l 0.0694,1.457005 h 1.37028 c -0.052,-0.572394 -0.0694,-1.422314 -0.0694,-2.168162 V 25.622348 Z m 0,8.794067 c 0,0.242835 -0.0174,0.450978 -0.0694,0.659122 -0.27752,1.14479 -1.21417,1.821256 -2.23754,1.821256 -1.6478,0 -2.48038,-1.404969 -2.48038,-3.104808 0,-1.855948 0.93665,-3.243572 2.51507,-3.243572 1.14479,0 1.97737,0.797884 2.20285,1.769221 0.052,0.190798 0.0694,0.450978 0.0694,0.641776 z"
         style="font-style:normal;font-variant:normal;font-weight:normal;font-stretch:normal;font-family:'Myriad Pro';-inkscape-font-specification:'Myriad Pro';stroke-width:0.0903397"
         id="path1657" />
      <path
         d="m 514.34567,36.480506 c -0.43364,0.190798 -1.00603,0.416287 -1.8733,0.416287 -1.66514,0 -2.91401,-1.196825 -2.91401,-3.139499 0,-1.751875 1.04072,-3.17419 2.96605,-3.17419 0.83257,0 1.40497,0.190798 1.76922,0.398942 l 0.34691,-1.179481 c -0.41629,-0.208143 -1.21417,-0.433632 -2.11613,-0.433632 -2.74056,0 -4.50978,1.873292 -4.50978,4.457742 0,2.567105 1.64781,4.301635 4.18022,4.301635 1.12744,0 2.01205,-0.29487 2.411,-0.503014 z"
         style="font-style:normal;font-variant:normal;font-weight:normal;font-stretch:normal;font-family:'Myriad Pro';-inkscape-font-specification:'Myriad Pro';stroke-width:0.0903397"
         id="path1659" />
      <path
         d="m 522.17339,32.785957 c 0,-1.682494 -0.62443,-3.434369 -3.19153,-3.434369 -1.05806,0 -2.06409,0.29487 -2.7579,0.745848 l 0.3469,1.006027 c 0.58974,-0.381597 1.40497,-0.624431 2.18551,-0.624431 1.71718,0 1.90798,1.248862 1.90798,1.942674 v 0.173453 c -3.24357,-0.01735 -5.04748,1.092754 -5.04748,3.122154 0,1.214171 0.86727,2.410997 2.5671,2.410997 1.19683,0 2.09879,-0.58974 2.56711,-1.248862 h 0.052 l 0.12141,1.058063 h 1.38763 c -0.10408,-0.572394 -0.13877,-1.283552 -0.13877,-2.012054 z m -1.47435,2.32427 c 0,0.156108 -0.0347,0.329561 -0.0867,0.485669 -0.24284,0.711157 -0.93665,1.404969 -2.0294,1.404969 -0.78054,0 -1.43966,-0.468323 -1.43966,-1.457005 0,-1.630458 1.89063,-1.925328 3.55578,-1.890638 z"
         style="font-style:normal;font-variant:normal;font-weight:normal;font-stretch:normal;font-family:'Myriad Pro';-inkscape-font-specification:'Myriad Pro';stroke-width:0.0903397"
         id="path1661" />
      <path
         d="m 523.93024,37.53857 c 0.58974,0.346906 1.43966,0.58974 2.35896,0.58974 1.99471,0 3.1395,-1.058064 3.1395,-2.532414 0,-1.248862 -0.74584,-1.977364 -2.20285,-2.532414 -1.09275,-0.416287 -1.59577,-0.728503 -1.59577,-1.422315 0,-0.624431 0.50302,-1.14479 1.40497,-1.14479 0.78054,0 1.38763,0.277525 1.71719,0.485669 l 0.38159,-1.110099 c -0.46832,-0.277525 -1.21417,-0.520359 -2.06409,-0.520359 -1.80391,0 -2.89666,1.110099 -2.89666,2.463032 0,1.006028 0.71115,1.838602 2.2202,2.376306 1.12744,0.416288 1.56107,0.81523 1.56107,1.543732 0,0.693812 -0.52036,1.248862 -1.63046,1.248862 -0.76319,0 -1.56107,-0.312216 -2.01205,-0.607086 z"
         style="font-style:normal;font-variant:normal;font-weight:normal;font-stretch:normal;font-family:'Myriad Pro';-inkscape-font-specification:'Myriad Pro';stroke-width:0.0903397"
         id="path1663" />
      <path
         d="m 531.61921,27.998654 v 1.543732 h -1.3009 v 1.162135 h 1.3009 v 4.579159 c 0,0.988683 0.15611,1.734531 0.58974,2.185508 0.36425,0.416288 0.93665,0.659122 1.6478,0.659122 0.58974,0 1.05807,-0.104072 1.35294,-0.225489 l -0.0694,-1.14479 c -0.22548,0.06938 -0.46832,0.104072 -0.88461,0.104072 -0.84992,0 -1.14479,-0.58974 -1.14479,-1.630458 v -4.527124 h 2.18551 v -1.162135 h -2.18551 v -2.012055 z"
         style="font-style:normal;font-variant:normal;font-weight:normal;font-stretch:normal;font-family:'Myriad Pro';-inkscape-font-specification:'Myriad Pro';stroke-width:0.0903397"
         id="path1665" />
      <path
         d="M 544.23336,37.937511 V 32.95941 l 3.92004,-6.712631 h -1.71719 l -1.68249,3.226226 c -0.45098,0.88461 -0.84992,1.647803 -1.17948,2.410997 h -0.0347 c -0.36426,-0.81523 -0.71116,-1.526387 -1.16214,-2.410997 l -1.6478,-3.226226 h -1.71719 l 3.69455,6.729976 v 4.960756 z"
         id="path1667" />
      <path
         d="m 551.55805,29.351588 c -2.32427,0 -4.16288,1.647803 -4.16288,4.457742 0,2.653831 1.75188,4.31898 4.02411,4.31898 2.0294,0 4.18022,-1.352934 4.18022,-4.457743 0,-2.567104 -1.63046,-4.318979 -4.04145,-4.318979 z m -0.0347,1.144789 c 1.80391,0 2.51507,1.803912 2.51507,3.226226 0,1.890638 -1.09276,3.260917 -2.54976,3.260917 -1.4917,0 -2.54976,-1.387624 -2.54976,-3.226226 0,-1.595768 0.78054,-3.260917 2.58445,-3.260917 z"
         id="path1669" />
      <path
         d="m 564.43326,29.542386 h -1.52639 v 5.151554 c 0,0.277525 -0.052,0.55505 -0.13876,0.780539 -0.27753,0.676466 -0.98868,1.387624 -2.01206,1.387624 -1.38762,0 -1.87329,-1.075409 -1.87329,-2.671177 v -4.64854 h -1.52638 v 4.90872 c 0,2.948701 1.57842,3.677204 2.89666,3.677204 1.4917,0 2.37631,-0.884611 2.77525,-1.561077 h 0.0347 l 0.0867,1.370278 h 1.35293 c -0.052,-0.659121 -0.0694,-1.422314 -0.0694,-2.289579 z"
         id="path1671" />
      <path
         d="m 566.84923,37.937511 h 1.50904 v -4.475087 c 0,-0.26018 0.0347,-0.503014 0.0694,-0.711157 0.20815,-1.14479 0.97134,-1.960019 2.04675,-1.960019 0.20814,0 0.36425,0.01734 0.52036,0.05204 v -1.439659 c -0.13877,-0.03469 -0.26018,-0.05204 -0.43364,-0.05204 -1.02337,0 -1.94267,0.711157 -2.32427,1.838601 h -0.0694 l -0.052,-1.647803 h -1.33559 c 0.052,0.780538 0.0694,1.630458 0.0694,2.61914 z"
         id="path1673" />
      <path
         d="m 571.81498,37.53857 c 0.58974,0.346906 1.43966,0.58974 2.35896,0.58974 1.99471,0 3.1395,-1.058064 3.1395,-2.532414 0,-1.248862 -0.74585,-1.977364 -2.20285,-2.532414 -1.09276,-0.416287 -1.59577,-0.728503 -1.59577,-1.422315 0,-0.624431 0.50301,-1.14479 1.40497,-1.14479 0.78054,0 1.38762,0.277525 1.71718,0.485669 l 0.3816,-1.110099 c -0.46832,-0.277525 -1.21417,-0.520359 -2.06409,-0.520359 -1.80391,0 -2.89667,1.110099 -2.89667,2.463032 0,1.006028 0.71116,1.838602 2.2202,2.376306 1.12745,0.416288 1.56108,0.81523 1.56108,1.543732 0,0.693812 -0.52036,1.248862 -1.63046,1.248862 -0.76319,0 -1.56108,-0.312216 -2.01206,-0.607086 z"
         id="path1675" />
      <path
         d="m 585.90437,34.017473 c 0.0173,-0.156107 0.052,-0.398941 0.052,-0.711157 0,-1.543732 -0.7285,-3.954728 -3.46906,-3.954728 -2.44568,0 -3.93738,1.994709 -3.93738,4.527123 0,2.532414 1.54373,4.249599 4.12818,4.249599 1.33559,0 2.25489,-0.29487 2.7926,-0.537705 l -0.26018,-1.092754 c -0.5724,0.242835 -1.23152,0.433633 -2.32427,0.433633 -1.52639,0 -2.84463,-0.84992 -2.87932,-2.914011 z m -5.88006,-1.092753 c 0.12142,-1.058064 0.79788,-2.480378 2.34162,-2.480378 1.71718,0 2.13347,1.509041 2.11612,2.480378 z"
         id="path1677" />
      <path
         d="m 587.73061,37.937511 h 1.52638 V 25.622348 h -1.52638 z"
         id="path1679" />
      <path
         d="m 593.3728,37.937511 v -7.23299 h 2.0294 v -1.162135 h -2.0294 v -0.450978 c 0,-1.283552 0.32956,-2.428342 1.63046,-2.428342 0.43363,0 0.74585,0.08673 0.97134,0.190798 l 0.20814,-1.17948 c -0.29487,-0.121417 -0.76319,-0.242834 -1.3009,-0.242834 -0.71116,0 -1.47435,0.225489 -2.04674,0.780538 -0.71116,0.676467 -0.97134,1.751876 -0.97134,2.931356 v 0.398942 h -1.17948 v 1.162135 h 1.17948 v 7.23299 z"
         id="path1681" />
    </g>
    <g
       aria-label="TM"
       transform="scale(1.0354279,0.9657843)"
       id="text1553-3"
       style="fill:#ffffff;font-size:5.98904px;line-height:1.6;font-family:Tahoma;-inkscape-font-specification:Tahoma;letter-spacing:-0.0401968px;word-spacing:-0.139775px;stroke-width:0.0311927">
      <path
         d="m 594.009,29.435682 h 0.52703 v -3.593424 h 1.23374 v -0.443189 h -2.98853 v 0.443189 h 1.22776 z"
         style="font-style:normal;font-variant:normal;font-weight:normal;font-stretch:normal;font-family:'Myriad Pro';-inkscape-font-specification:'Myriad Pro';stroke-width:0.0311927"
         id="path1684" />
      <path
         d="m 599.68234,29.435682 h 0.50907 l -0.25154,-4.036613 h -0.66478 l -0.71869,1.952427 c -0.17967,0.509069 -0.32341,0.952258 -0.42522,1.359512 h -0.018 c -0.10181,-0.419232 -0.23956,-0.862421 -0.40725,-1.359512 l -0.68874,-1.952427 h -0.66478 l -0.28149,4.036613 h 0.49709 l 0.1078,-1.730832 c 0.0359,-0.604893 0.0659,-1.281655 0.0779,-1.784734 h 0.012 c 0.11379,0.479123 0.27549,1.00017 0.46714,1.569128 l 0.65281,1.922482 h 0.39528 l 0.71269,-1.958416 c 0.20363,-0.550992 0.37132,-1.06006 0.50907,-1.533194 h 0.018 c -0.006,0.503079 0.0299,1.179841 0.0599,1.74281 z"
         style="font-style:normal;font-variant:normal;font-weight:normal;font-stretch:normal;font-family:'Myriad Pro';-inkscape-font-specification:'Myriad Pro';stroke-width:0.0311927"
         id="path1686" />
    </g>
  </g>
</svg>
