<?xml version="1.0" encoding="UTF-8" standalone="no"?>
<!-- Created with Inkscape (http://www.inkscape.org/) -->

<svg
   xmlns:dc="http://purl.org/dc/elements/1.1/"
   xmlns:cc="http://creativecommons.org/ns#"
   xmlns:rdf="http://www.w3.org/1999/02/22-rdf-syntax-ns#"
   xmlns:svg="http://www.w3.org/2000/svg"
   xmlns="http://www.w3.org/2000/svg"
   xmlns:xlink="http://www.w3.org/1999/xlink"
   xmlns:sodipodi="http://sodipodi.sourceforge.net/DTD/sodipodi-0.dtd"
   xmlns:inkscape="http://www.inkscape.org/namespaces/inkscape"
   version="1.1"
   width="1104.571"
   height="440.29877"
   id="svg2"
   inkscape:version="0.91 r13725"
   sodipodi:docname="YouTube logo 2005.svg">
  <sodipodi:namedview
     pagecolor="#ffffff"
     bordercolor="#666666"
     borderopacity="1"
     objecttolerance="10"
     gridtolerance="10"
     guidetolerance="10"
     inkscape:pageopacity="0"
     inkscape:pageshadow="2"
     inkscape:window-width="1366"
     inkscape:window-height="705"
     id="namedview41"
     showgrid="false"
     inkscape:zoom="0.43455785"
     inkscape:cx="984.34174"
     inkscape:cy="326.01332"
     inkscape:window-x="-8"
     inkscape:window-y="-8"
     inkscape:window-maximized="1"
     inkscape:current-layer="g4030" />
  <metadata
     id="metadata23">
    <rdf:RDF>
      <cc:Work
         rdf:about="">
        <dc:format>image/svg+xml</dc:format>
        <dc:type
           rdf:resource="http://purl.org/dc/dcmitype/StillImage" />
        <dc:title />
      </cc:Work>
    </rdf:RDF>
  </metadata>
  <defs
     id="defs4">
    <linearGradient
       inkscape:collect="always"
       id="linearGradient6760">
      <stop
         style="stop-color:#333333;stop-opacity:1"
         offset="0"
         id="stop6762" />
      <stop
         style="stop-color:#525252;stop-opacity:1"
         offset="1"
         id="stop6764" />
    </linearGradient>
    <linearGradient
       id="linearGradient6754"
       inkscape:collect="always">
      <stop
         id="stop6756"
         offset="0"
         style="stop-color:#ffffff;stop-opacity:0.84" />
      <stop
         style="stop-color:#ffffff;stop-opacity:0.13;"
         offset="0.76420587"
         id="stop6768" />
      <stop
         id="stop6758"
         offset="1"
         style="stop-color:#ffffff;stop-opacity:0" />
    </linearGradient>
    <linearGradient
       inkscape:collect="always"
       id="linearGradient3063">
      <stop
         style="stop-color:#b80f0f;stop-opacity:1"
         offset="0"
         id="stop3065" />
      <stop
         style="stop-color:#ff3333;stop-opacity:1"
         offset="1"
         id="stop3067" />
    </linearGradient>
    <linearGradient
       x1="345.06525"
       y1="1071.3171"
       x2="345.06525"
       y2="-135.11966"
       id="linearGradient3049"
       gradientUnits="userSpaceOnUse"
       gradientTransform="scale(1.58195, 0.632131)">
      <stop
         id="stop3051"
         style="stop-color:#912420;stop-opacity:1"
         offset="0" />
      <stop
         id="stop3053"
         style="stop-color:#ce332d;stop-opacity:1"
         offset="0.48934084" />
    </linearGradient>
    <linearGradient
       gradientTransform="scale(1.58195, 0.632131)"
       gradientUnits="userSpaceOnUse"
       id="linearGradient3039"
       y2="-135.11966"
       x2="345.06525"
       y1="1071.3171"
       x1="345.06525">
      <stop
         offset="0"
         style="stop-color:#912420;stop-opacity:1"
         id="stop3041" />
      <stop
         offset="0.96720499"
         style="stop-color:#ffeeee;stop-opacity:1"
         id="stop3045" />
    </linearGradient>
    <linearGradient
       id="linearGradient3014">
      <stop
         id="stop3016"
         style="stop-color:#ffffff;stop-opacity:1"
         offset="0" />
      <stop
         id="stop3018"
         style="stop-color:#b3b3b3;stop-opacity:1"
         offset="1" />
    </linearGradient>
    <linearGradient
       x1="345.06525"
       y1="1071.3171"
       x2="345.06525"
       y2="-135.11966"
       id="g"
       gradientUnits="userSpaceOnUse"
       gradientTransform="scale(1.58195, 0.632131)">
      <stop
         id="stop7"
         style="stop-color:#590000;stop-opacity:1"
         offset="0" />
      <stop
         id="stop9"
         style="stop-color:#ff0000;stop-opacity:1"
         offset="0.96720499" />
      <stop
         id="stop11"
         style="stop-color:#ffeeee;stop-opacity:1"
         offset="0.96720499" />
    </linearGradient>
    <linearGradient
       x1="345.06525"
       y1="1071.3171"
       x2="345.06525"
       y2="-135.11966"
       id="linearGradient3774"
       xlink:href="#g"
       gradientUnits="userSpaceOnUse"
       gradientTransform="scale(1.58195, 0.632131)" />
    <linearGradient
       x1="339.63776"
       y1="1097.2302"
       x2="339.63776"
       y2="-635.19543"
       id="linearGradient3774-1"
       xlink:href="#g-7"
       gradientUnits="userSpaceOnUse"
       gradientTransform="matrix(1.58195, 0, 0, 0.632131, 320.259, 117.629)" />
    <linearGradient
       x1="345.06525"
       y1="1071.3171"
       x2="345.06525"
       y2="-135.11966"
       id="g-7"
       gradientUnits="userSpaceOnUse"
       gradientTransform="scale(1.58195, 0.632131)">
      <stop
         id="stop7-4"
         style="stop-color:#590000;stop-opacity:1"
         offset="0" />
      <stop
         id="stop9-0"
         style="stop-color:#ff0000;stop-opacity:1"
         offset="0.96720499" />
      <stop
         id="stop11-9"
         style="stop-color:#ffeeee;stop-opacity:1"
         offset="0.96720499" />
    </linearGradient>
    <linearGradient
       x1="339.63776"
       y1="1097.2302"
       x2="339.63776"
       y2="-635.19543"
       id="linearGradient3943"
       xlink:href="#g-7"
       gradientUnits="userSpaceOnUse"
       gradientTransform="matrix(1.58195, 0, 0, 0.632131, -137.182, -82.6614)" />
    <linearGradient
       x1="339.63776"
       y1="1097.2302"
       x2="339.63776"
       y2="-635.19543"
       id="linearGradient3943-2"
       xlink:href="#g-7-7"
       gradientUnits="userSpaceOnUse"
       gradientTransform="matrix(1.58195, 0, 0, 0.632131, -137.182, -82.6614)" />
    <linearGradient
       x1="345.06525"
       y1="1071.3171"
       x2="345.06525"
       y2="-135.11966"
       id="g-7-7"
       gradientUnits="userSpaceOnUse"
       gradientTransform="scale(1.58195, 0.632131)">
      <stop
         id="stop7-4-7"
         style="stop-color:#590000;stop-opacity:1"
         offset="0" />
      <stop
         id="stop9-0-1"
         style="stop-color:#ff0000;stop-opacity:1"
         offset="0.96720499" />
      <stop
         id="stop11-9-2"
         style="stop-color:#ffeeee;stop-opacity:1"
         offset="0.96720499" />
    </linearGradient>
    <linearGradient
       x1="339.63776"
       y1="1097.2302"
       x2="339.63776"
       y2="-635.19543"
       id="linearGradient3965"
       xlink:href="#g-7-7"
       gradientUnits="userSpaceOnUse"
       gradientTransform="matrix(1.58195, 0, 0, 0.632131, 6.70141, -52.6713)" />
    <linearGradient
       x1="339.63776"
       y1="1097.2302"
       x2="339.63776"
       y2="-635.19543"
       id="linearGradient4014"
       xlink:href="#g-7-7"
       gradientUnits="userSpaceOnUse"
       gradientTransform="matrix(1.58195, 0, 0, 0.632131, -0.584086, 0.75571)" />
    <linearGradient
       x1="339.63776"
       y1="1097.2302"
       x2="339.63776"
       y2="-635.19543"
       id="linearGradient4027"
       xlink:href="#g-7-7"
       gradientUnits="userSpaceOnUse"
       gradientTransform="matrix(1.58195, 0, 0, 0.632131, -0.584086, 0.75571)" />
    <linearGradient
       x1="339.63776"
       y1="1107.8513"
       x2="339.63776"
       y2="-635.19543"
       id="linearGradient4038"
       xlink:href="#linearGradient3039"
       gradientUnits="userSpaceOnUse"
       gradientTransform="matrix(1.58195, 0, 0, 0.632131, -0.584086, 0.75571)" />
    <linearGradient
       x1="543.32074"
       y1="441.51886"
       x2="543.32074"
       y2="817.55579"
       id="linearGradient3020"
       xlink:href="#linearGradient3014"
       gradientUnits="userSpaceOnUse" />
    <linearGradient
       inkscape:collect="always"
       xlink:href="#linearGradient3063"
       id="linearGradient3069"
       x1="532.82074"
       y1="694.12231"
       x2="533.97131"
       y2="480.04016"
       gradientUnits="userSpaceOnUse" />
    <linearGradient
       inkscape:collect="always"
       xlink:href="#linearGradient6754"
       id="linearGradient6752"
       x1="802.93817"
       y1="313.49374"
       x2="744.25781"
       y2="412.44492"
       gradientUnits="userSpaceOnUse" />
    <linearGradient
       inkscape:collect="always"
       xlink:href="#linearGradient6760"
       id="linearGradient6766"
       x1="-176.21803"
       y1="403.24011"
       x2="-173.91684"
       y2="341.108"
       gradientUnits="userSpaceOnUse" />
  </defs>
  <g
     transform="translate(244.234, -269.743)"
     id="g13">
    <g
       id="g3918">
      <path
         d="M 240,300 V 660 H 820 V 300 z"
         id="path15"
         style="fill:#ffffff" />
      <g
         transform="translate(144.245, 72.362)"
         id="g3770">
        <g
           transform="translate(-172.59, -95.4751)"
           id="g4018">
          <g
             transform="translate(33.9671, 28.4589)"
             id="g4030">
            <g
               transform="translate(138.424, 82.569)"
               id="g3933" />
            <path
               d="m -51.507956,624.39195 c -18.13302,-2.20203 -34.789107,-12.87107 -42.814437,-27.42471 -8.181607,-14.83705 -8.928037,-22.60799 -8.446507,-87.93466 0.37298,-50.60085 0.50341,-53.77285 2.50905,-61.01904 4.780847,-17.27277 14.037827,-29.05361 28.408984,-36.15455 19.72307,-9.74535 40.97911,-8.47345 59.58966,3.56564 11.84725031,7.66395 19.0470103,18.74639 22.88893,35.23244 1.701661,7.30202 1.864321,12.88589 1.864321,64 0,62.13567 -0.30215,65.7264 -6.6636307,79.1905 -6.12899999,12.97204 -19.9870503,24.40151 -34.4486003,28.41158 -6.364,1.76468 -17.42866,2.79575 -22.88777,2.1328 z m 15.89004,-40.58321 c 6.94577,-5.2978 6.99475,-5.73321 7.37969,-65.59803 0.29896,-46.49398 0.13262,-54.39497 -1.27875,-60.73879 -1.90178,-8.54813 -5.23777,-12.63104 -11.75399,-14.38567 -8.43777,-2.27206 -16.16723,2.55716 -18.84369,11.77317 -2.06163,7.09896 -2.04028,112.56846 0.0242,119.68185 1.54549,5.32509 6.5687,11.16055 10.29078,11.95479 4.83713,1.03217 10.78217,-0.0944 14.18172,-2.68732 z m 102.109969,40.62657 c -10.05339,-1.33855 -15.92063,-5.21769 -19.9473,-13.18822 -5.055399,-10.00682 -5.052699,-9.94823 -5.052699,-109.59002 l 0,-92.99998 20.277509,0 20.27749,0 0.42841,85.71439 c 0.46543,93.12025 0.32656,90.94684 5.90048,92.34581 5.1182,1.28458 10.77679,-1.45855 17.838827,-8.64779 l 6.7655,-6.88736 0.25589,-81.26254 0.25588,-81.26251 20.25001,-0.27072 20.25,-0.27069 0,106.44123 0,106.44125 -2.75,0.56484 c -3.31773,0.68144 -34.02595,0.63705 -36.50001,-0.0528 -1.51208,-0.4216 -1.75,-1.80007 -1.75,-10.13924 l 0,-9.65131 -5.75,5.59835 c -13.231127,12.88219 -27.509987,18.88011 -40.749987,17.11728 z m -263.123723,-3.47843 c -0.85057,-1.37626 -0.723,-83.64703 0.14777,-95.29981 1.11659,-14.94216 0.32423,-26.68985 -10.40221,-56.73291 -3.48219,-9.7531 -10.19374,-29.5117 -14.38984,-42.85859 -30.31305,-96.41932 -28.27444,-89.89967 -25.37829,-89.9244 19.96744,-0.17045 42.91222,-0.0515 43.18027,0.21656 0.19218,0.19218 6.68395,23.73816 14.42614,52.32439 7.74219,28.58623 14.20409,52.38194 14.35978,52.87937 0.15568,0.49744 4.70032,-16.15254 10.0992,-36.99998 11.3176,-43.70227 17.66811,-67.83118 17.91103,-68.05344 0.50626,-0.46321 6.13548,-0.57018 24.52928,-0.46614 l 20.3594,0.11515 -0.44831,3.25 c -0.36652,2.65701 -14.25823,49.31457 -28.80612,96.74999 -1.60245,5.225 -5.65384,18.725 -9.00308,30 -3.34925,11.275 -7.41069,24.66788 -9.02542,29.76196 l -2.93588,9.26196 0,57.92065 c 0,54.31348 -0.10899,57.95047 -1.75,58.39942 -3.64979,0.9985 -42.22287,0.50891 -42.87372,-0.54418 z"
               id="path19-8"
               style="fill:#ffffff;fill-opacity:1;stroke:none" />
            <path
               d="m -51.040732,621.44569 c -18.13302,-2.20203 -34.78911,-12.87107 -42.81444,-27.42471 -8.181608,-14.83705 -8.928038,-22.60799 -8.446508,-87.93466 0.37298,-50.60085 0.50341,-53.77285 2.509048,-61.01904 4.78085,-17.27277 14.03783,-29.05361 28.40899,-36.15455 19.72307,-9.74535 40.979107,-8.47345 59.589657,3.56564 11.84725008,7.66395 19.0470101,18.74639 22.88893,35.23244 1.70166,7.30202 1.86432,12.88589 1.86432,64 0,62.13567 -0.30215,65.7264 -6.6636299,79.1905 -6.12900002,12.97204 -19.9870501,24.40151 -34.4486001,28.41158 -6.364,1.76468 -17.428657,2.79575 -22.887767,2.1328 z m 15.890037,-40.58321 c 6.94577,-5.2978 6.99475,-5.73321 7.37969,-65.59803 0.29896,-46.49398 0.13262,-54.39497 -1.27875,-60.73879 -1.90178,-8.54813 -5.23777,-12.63104 -11.75399,-14.38567 -8.437767,-2.27206 -16.167227,2.55716 -18.843687,11.77317 -2.06163,7.09896 -2.04028,112.56846 0.0242,119.68185 1.54549,5.32509 6.5687,11.16055 10.29078,11.95479 4.83713,1.03217 10.782167,-0.0944 14.181717,-2.68732 l 4e-5,0 z m 102.10997,40.62657 C 56.905886,620.1505 51.038646,616.27136 47.011976,608.30083 41.956575,598.29401 41.959275,598.3526 41.959275,498.71081 l 0,-92.99998 20.277511,0 20.277489,0 0.42841,85.71439 c 0.46543,93.12025 0.32656,90.94684 5.90048,92.34581 5.1182,1.28458 10.77679,-1.45855 17.838835,-8.64779 l 6.7655,-6.88736 0.25589,-81.26254 0.25588,-81.26251 20.25,-0.27072 20.25,-0.27069 0,106.44123 0,106.44125 -2.75,0.56484 c -3.31773,0.68144 -34.02594,0.63705 -36.5,-0.0528 -1.51208,-0.4216 -1.75,-1.80007 -1.75,-10.13924 l 0,-9.65131 -5.75,5.59835 c -13.231135,12.88219 -27.509995,18.88011 -40.749995,17.11728 l 0,3e-5 z m -263.123725,-3.47843 c -0.85057,-1.37626 -0.723,-83.64703 0.14777,-95.29981 1.11659,-14.94216 -1.39298,-26.68985 -12.11942,-56.73291 -3.48219,-9.7531 -9.76444,-28.6531 -13.96054,-41.99999 -30.31305,-96.41932 -28.70374,-90.75827 -25.80759,-90.783 19.96744,-0.17045 44.62943,-0.0515 44.89748,0.21656 0.19218,0.19218 6.68395,23.73816 14.42614,52.32439 7.74219,28.58623 14.20409,52.38194 14.35978,52.87937 0.15568,0.49744 4.70032,-16.15254 10.0992,-36.99998 11.3176,-43.70227 17.66811,-67.83118 17.91103,-68.05344 0.50626,-0.46321 6.13548,-0.57018 24.52928,-0.46614 l 20.3594,0.11515 -0.44831,3.25 c -0.36652,2.65701 -14.25823,49.31457 -28.80612,96.74999 -1.60245,5.225 -5.65384,18.725 -9.00308,30 -3.34925,11.275 -7.41069,24.66788 -9.02542,29.76196 l -2.93588,9.26196 0,57.92065 c 0,54.31348 -0.10899,57.95047 -1.75,58.39942 -3.64979,0.9985 -42.22287,0.50891 -42.87372,-0.54418 z"
               id="path19"
               style="stroke:none;stroke-width:1;stroke-miterlimit:4;stroke-opacity:1;stroke-dasharray:none;fill:url(#linearGradient6766);fill-opacity:1" />
            <path
               d="m 451.83215,704.27354 c -23.375,-0.41477 -51.05,-1.0617 -61.5,-1.43764 -70.1662,-2.52423 -118.33966,-5.22235 -127.96482,-7.16713 -13.7196,-2.77206 -29.0514,-12.05584 -37.94979,-22.97955 -14.26141,-17.50738 -21.85633,-38.74901 -25.5453,-71.44571 -8.57642,-76.01577 -8.38617,-164.64323 0.5109,-238 3.89651,-32.12699 13.59078,-55.35269 29.86324,-71.54688 9.28656,-9.2419 18.20859,-14.41545 30.10896,-17.45905 25.74806,-6.58525 227.35062,-11.82967 349.97681,-9.10418 70.82972,1.57426 147.36872,4.8378 167.71162,7.15104 26.3086,2.99162 44.7809,16.6166 57.5644,42.45907 9.652,19.5121 12.7568,34.69945 16.6611,81.5 3.0932,37.07869 3.828,60.16179 3.277,102.94182 -0.6594,51.20056 -3.9152,96.29636 -8.7805,121.61981 -5.1419,26.76314 -17.3134,49.58525 -33.0302,61.93308 -12.1447,9.54142 -25.0758,13.79808 -45.4034,14.9459 -6.05,0.34162 -13.7,0.82983 -17,1.08492 -11.7385,0.90736 -74.54682,3.45472 -109.00002,4.42078 -51.20786,1.43586 -140.78403,1.94813 -189.5,1.08372 z"
               id="path17"
               style="fill:url(#linearGradient3069);stroke:none;fill-opacity:1" />
            <path
               style="fill:url(#linearGradient6752);fill-opacity:1;stroke:none"
               id="path6750"
               d="m 446.426,704.28568 c -22.88757,-0.40285 -49.98549,-1.03118 -60.21758,-1.39632 -68.70308,-2.45167 -115.87202,-5.07223 -125.29647,-6.9611 -13.43351,-2.69238 -28.44561,-11.70929 -37.15845,-22.319 -13.96403,-17.00412 -21.40058,-37.63515 -25.01262,-69.39198 -8.39759,-73.83067 -8.2113,-159.9105 0.50024,-231.1586 3.81526,-31.20349 13.30738,-53.76156 29.24053,-69.49024 9.09291,-8.97624 17.8289,-14.00107 29.48112,-16.95719 25.21115,-6.39595 222.60985,-11.48962 342.67901,-8.84247 69.35276,1.529 144.29575,4.69873 164.21445,6.94548 25.76001,2.90562 43.84712,16.13895 56.36405,41.23857 9.45074,18.95122 12.4908,33.702 16.31368,79.15725 3.0287,36.01285 3.74818,58.43242 3.20867,99.98272 -0.64565,49.72878 -3.83356,93.52829 -8.59741,118.12381 -5.03468,25.99382 -16.95237,48.1599 -32.34144,60.15279 -11.89146,9.26715 -24.55292,13.40145 -44.45664,14.51627 -5.92384,0.3318 -13.41432,0.80598 -16.64551,1.05374 -11.49373,0.88128 -72.99235,3.35541 -106.72713,4.2937 -50.14006,1.39459 -137.84836,1.89213 -185.5485,1.05257 z"
               inkscape:connector-curvature="0" />
            <path
               d="m 253.70124,329.534 0,19 0,18.96875 22.25,0.28125 22.25,0.28125 0.25,120.50001 c 0.13586,66.275 0.45489,121.05083 0.71874,121.75 0.37062,0.98209 5.00526,1.20953 20.28125,1 l 19.75,-0.25 0.5,-121.5 0.5,-121.50001 22.78126,-0.28125 22.78124,-0.28125 -0.28125,-18.71875 -0.28124,-18.71875 -65.75001,-0.28125 -65.74999,-0.25 z m 285.99999,0.0312 0,141.00001 0,141 18,0 18,0 0,-9.5 c 0,-6.2965 0.38902,-9.5 1.125,-9.5 0.61074,0 4.65524,3.31901 9,7.40625 14.0005,13.17066 26.1295,16.80728 41.25,12.34375 5.7939,-1.71037 12.8619,-8.62526 16.0313,-15.6875 6.086,-13.56144 6.0937,-13.87929 6.0937,-90.0625 0,-62.54223 -0.1506,-70.25084 -1.7187,-77 -5.0276,-21.63784 -15.998,-31.11097 -34.4063,-29.71876 -10.3229,0.78072 -18.45667,4.89048 -28.1875,14.28125 -4.22799,4.08024 -8.025,7.4373 -8.4375,7.43751 -0.4125,2e-4 -0.75,-20.70001 -0.75,-46.00001 l 0,-46 -18,0 -18,0 z m 198.125,70.0625 c -5.8598,0.11996 -11.7239,1.16966 -17.3437,3.21875 -19.3908,7.07025 -30.8488,19.81299 -35.4688,39.50001 -1.6329,6.95818 -1.8125,13.21589 -1.8125,64.21875 0,62.55344 0.2292,65.10698 6.625,77.90625 11.3952,22.80364 39.941,34.69526 65.875,27.4375 19.2619,-5.39053 32.5882,-18.533 37.5937,-37.09375 0.8555,-3.17174 1.8043,-12.1625 2.125,-20 l 0.5938,-14.25 -18.5312,0 -18.5313,0 -0.4687,12.75 c -0.5206,14.52041 -2.008,19.49496 -7.2813,24.125 -5.6277,4.94117 -15.9618,5.2824 -22.6875,0.75 -7.9957,-5.38829 -9.995,-14.49892 -9.5938,-44.125 l 0.2813,-21 38.375,-0.28125 38.375,-0.25 -0.5313,-31.25 c -0.5879,-34.84458 -1.3147,-40.13376 -7.1874,-52.5 -8.7047,-18.32946 -29.4786,-29.58468 -50.4063,-29.15626 z m -343.125,2.9375 0,90.53126 c 0,98.58687 0.10448,100.71189 5.625,110.21875 6.03053,10.38516 20.18981,13.63878 35.09375,8.0625 7.19771,-2.69301 15.62979,-8.51816 22.75,-15.75 3.28278,-3.33425 6.54528,-6.0625 7.25,-6.0625 0.96408,0 1.28125,2.72334 1.28125,11 l 0,11 18,0 18,0 0,-104.5 0,-104.50001 -18,0 -18,0 0,80.62501 0,80.59375 -7.75,7.71875 c -6.1527,6.11598 -8.73966,7.95821 -12.53125,9 -6.44502,1.77084 -10.49825,0.55575 -13.15625,-3.96875 -2.00562,-3.41401 -2.04544,-4.94943 -2.3125,-88.71875 l -0.28125,-85.25001 -17.96875,0 -18,0 z m 344.5937,29.62501 c 8.0345,0 13.0996,3.09257 16.5313,10.0625 2.1751,4.41786 2.4152,6.27981 2.7187,22.5625 l 0.3126,17.75 -19.5938,0 c -16.8965,0 -19.6999,-0.24161 -20.2188,-1.59375 -0.9276,-2.41752 0.3658,-30.452 1.5938,-34.53125 2.8854,-9.58494 9.0042,-14.25 18.6562,-14.25 z m -144.12495,2.34375 c 5.64945,-0.20262 10.51125,2.39047 13.12495,7.65625 1.8197,3.66592 1.9424,6.95825 2.1563,62.875 0.2052,53.64727 0.069,59.44341 -1.5,63.96875 -1.2049,3.4749 -2.7526,5.66286 -5.125,7.25 -5.9958,4.01112 -14.70236,2.73039 -22.625,-3.3125 l -3.5,-2.65625 0,-63.75 0,-63.78125 3.5,-2.65625 c 4.69697,-3.58255 9.57473,-5.43615 13.96875,-5.59375 z"
               id="rect3947"
               style="opacity:0.753;fill:#a60707;fill-opacity:1;stroke:none"
               inkscape:connector-curvature="0" />
            <path
               d="m 253.70124,336.17674 0,19 0,18.96875 22.25,0.28125 22.25,0.28125 0.25,120.5 c 0.13586,66.275 0.45489,121.05083 0.71875,121.75 0.37062,0.98209 5.00526,1.20953 20.28125,1 l 19.75,-0.25 0.5,-121.5 0.5,-121.5 22.78125,-0.28125 22.78125,-0.28125 -0.28125,-18.71875 -0.28125,-18.71875 -65.75,-0.28125 -65.75,-0.25 z m 286,0.0312 0,141 0,141 18,0 18,0 0,-9.5 c 0,-6.2965 0.38902,-9.5 1.125,-9.5 0.61074,0 4.65524,3.31901 9,7.40625 14.0005,13.17066 26.1295,16.80728 41.25,12.34375 5.7939,-1.71037 12.8619,-8.62526 16.0313,-15.6875 6.086,-13.56144 6.0937,-13.87929 6.0937,-90.0625 0,-62.54223 -0.1506,-70.25084 -1.7187,-77 -5.0276,-21.63783 -15.998,-31.11096 -34.4063,-29.71875 -10.3229,0.78072 -18.45667,4.89048 -28.1875,14.28125 -4.22799,4.08023 -8.025,7.43729 -8.4375,7.4375 -0.4125,2e-4 -0.75,-20.7 -0.75,-46 l 0,-46 -18,0 -18,0 z m 198.125,70.0625 c -5.8598,0.11996 -11.7239,1.16966 -17.3437,3.21875 -19.3908,7.07025 -30.8488,19.81298 -35.4688,39.5 -1.6329,6.95818 -1.8125,13.21589 -1.8125,64.21875 0,62.55344 0.2292,65.10698 6.625,77.90625 11.3952,22.80364 39.941,34.69526 65.875,27.4375 19.2619,-5.39053 32.5882,-18.533 37.5937,-37.09375 0.8555,-3.17174 1.8043,-12.1625 2.125,-20 l 0.5938,-14.25 -18.5312,0 -18.5313,0 -0.4687,12.75 c -0.5206,14.52041 -2.008,19.49496 -7.2813,24.125 -5.6277,4.94117 -15.9618,5.2824 -22.6875,0.75 -7.9957,-5.38829 -9.995,-14.49892 -9.5938,-44.125 l 0.2813,-21 38.375,-0.28125 38.375,-0.25 -0.5313,-31.25 c -0.5879,-34.84458 -1.3147,-40.13376 -7.1874,-52.5 -8.7047,-18.32945 -29.4786,-29.58467 -50.4063,-29.15625 z m -343.125,2.9375 0,90.53125 c 0,98.58687 0.10448,100.71189 5.625,110.21875 6.03053,10.38516 20.18981,13.63878 35.09375,8.0625 7.19771,-2.69301 15.62979,-8.51816 22.75,-15.75 3.28278,-3.33425 6.54528,-6.0625 7.25,-6.0625 0.96408,0 1.28125,2.72334 1.28125,11 l 0,11 18,0 18,0 0,-104.5 0,-104.5 -18,0 -18,0 0,80.625 0,80.59375 -7.75,7.71875 c -6.1527,6.11598 -8.73966,7.95821 -12.53125,9 -6.44502,1.77084 -10.49825,0.55575 -13.15625,-3.96875 -2.00562,-3.41401 -2.04544,-4.94943 -2.3125,-88.71875 l -0.28125,-85.25 -17.96875,0 -18,0 z m 344.5937,29.625 c 8.0345,0 13.0996,3.09257 16.5313,10.0625 2.1751,4.41786 2.4152,6.27981 2.7187,22.5625 l 0.3126,17.75 -19.5938,0 c -16.8965,0 -19.6999,-0.24161 -20.2188,-1.59375 -0.9276,-2.41752 0.3658,-30.452 1.5938,-34.53125 2.8854,-9.58494 9.0042,-14.25 18.6562,-14.25 z m -144.12495,2.34375 c 5.64945,-0.20262 10.51125,2.39047 13.12495,7.65625 1.8197,3.66592 1.9424,6.95825 2.1563,62.875 0.2052,53.64727 0.069,59.44341 -1.5,63.96875 -1.2049,3.4749 -2.7526,5.66286 -5.125,7.25 -5.9958,4.01112 -14.70236,2.73039 -22.625,-3.3125 l -3.5,-2.65625 0,-63.75 0,-63.78125 3.5,-2.65625 c 4.69697,-3.58255 9.57473,-5.43615 13.96875,-5.59375 z"
               id="rect3947-6"
               style="fill:#ffffff;fill-opacity:1;stroke:#ffffff;stroke-opacity:1" />
          </g>
        </g>
      </g>
    </g>
  </g>
</svg>
