<?xml version="1.0" encoding="UTF-8" standalone="no"?>
<svg
   xmlns:dc="http://purl.org/dc/elements/1.1/"
   xmlns:cc="http://creativecommons.org/ns#"
   xmlns:rdf="http://www.w3.org/1999/02/22-rdf-syntax-ns#"
   xmlns:svg="http://www.w3.org/2000/svg"
   xmlns="http://www.w3.org/2000/svg"
   viewBox="0 0 668.02667 278.77332"
   height="278.77332"
   width="668.02667"
   xml:space="preserve"
   id="svg2"
   version="1.1"><metadata
     id="metadata8"><rdf:RDF><cc:Work
         rdf:about=""><dc:format>image/svg+xml</dc:format><dc:type
           rdf:resource="http://purl.org/dc/dcmitype/StillImage" /></cc:Work></rdf:RDF></metadata><defs
     id="defs6"><clipPath
       id="clipPath20"
       clipPathUnits="userSpaceOnUse"><path
         id="path18"
         d="M 0,0 V 2091 H 5010 V 0 Z" /></clipPath><clipPath
       id="clipPath26"
       clipPathUnits="userSpaceOnUse"><path
         id="path24"
         d="m 4980.41,1639.73 c 0,0 -29.18,204.85 -118.71,295.06 -113.54,118.39 -240.84,118.99 -299.2,125.91 -417.85,30.07 -1044.65,30.07 -1044.65,30.07 h -1.31 c 0,0 -626.81,0 -1044.66,-30.07 -58.38,-6.92 -185.63,-7.52 -299.2,-125.91 -89.54,-90.21 -118.68,-295.06 -118.68,-295.06 0,0 -29.86,-240.55 -29.86,-481.12 V 933.082 c 0,-240.543 29.86,-481.094 29.86,-481.094 0,0 29.14,-204.84 118.68,-295.058 C 2286.25,38.5117 2435.49,42.2812 2501.93,29.8789 2740.82,7.05078 3517.19,0 3517.19,0 c 0,0 627.46,0.941406 1045.31,30.9883 58.36,6.9414 185.66,7.5234 299.2,125.9417 89.53,90.218 118.71,295.058 118.71,295.058 0,0 29.82,240.551 29.82,481.094 v 225.528 c 0,240.57 -29.82,481.12 -29.82,481.12 z" /></clipPath><linearGradient
       id="linearGradient32"
       spreadMethod="pad"
       gradientTransform="matrix(-9.14e-5,-2090.78,-2090.78,9.14e-5,3517.19,2090.77)"
       gradientUnits="userSpaceOnUse"
       y2="0"
       x2="1"
       y1="0"
       x1="0"><stop
         id="stop28"
         offset="0"
         style="stop-opacity:1;stop-color:#e42526" /><stop
         id="stop30"
         offset="1"
         style="stop-opacity:1;stop-color:#be1f26" /></linearGradient><clipPath
       id="clipPath42"
       clipPathUnits="userSpaceOnUse"><path
         id="path40"
         d="M 0,0 H 5010 V 2090.77 H 0 Z" /></clipPath></defs><g
     transform="matrix(1.3333333,0,0,-1.3333333,0,278.77333)"
     id="g10"><g
       transform="scale(0.1)"
       id="g12"><g
         id="g14"><g
           clip-path="url(#clipPath20)"
           id="g16"><g
             clip-path="url(#clipPath26)"
             id="g22"><path
               id="path34"
               style="fill:url(#linearGradient32);fill-opacity:1;fill-rule:nonzero;stroke:none"
               d="m 3428,0 v 1 h -75 v 1 h -67 v 1 h -61 v 1 h -56 v 1 h -51 v 1 h -48 v 1 h -46 v 1 h -42 v 1 h -39 v 1 h -37 v 1 h -35 v 1 h -33 v 1 h -31 v 1 h -29 v 1 h -28 v 1 h -26 v 1 h -25 v 1 h -23 v 1 h -22 v 1 h -20 v 1 h -20 v 1 h -17 v 1 h -17 v 1 h -16 v 1 h -15 v 1 h -13 v 1 h -13 v 1 h -11 v 1 h -11 v 1 h -6 v 1 h -7 v 1 h -7 v 1 h -8 v 1 h -8 v 1 h -8 v 1 h -8 v 1 h -9 v 1 h -7 v 1 h -7 v 1 h -8 v 1 h -6 v 1 h -6 v 1 h -6 v 1 h -6 v 1 h -5 v 1 h -5 v 1 h -5 v 1 h -5 v 1 h -4 v 1 h -4 v 1 h -4 v 1 h -5 v 1 h -4 v 1 h -3 v 1 h -4 v 1 h -3 v 1 h -4 v 1 h -3 v 1 h -4 v 1 h -3 v 1 h -3 v 1 h -3 v 1 h -3 v 1 h -3 v 1 h -3 v 1 h -2 v 1 h -3 v 1 h -3 v 1 h -2 v 1 h -3 v 1 h -2 v 1 h -3 v 1 h -2 v 1 h -2 v 1 h -3 v 1 h -2 v 1 h -3 v 1 h -2 v 1 h -2 v 1 h -2 v 1 h -2 v 1 h -2 v 1 h -2 v 1 h -2 v 1 h -2 v 1 h -2 v 1 h -2 v 1 h -2 v 1 h -2 v 1 h -1 v 1 h -2 v 1 h -2 v 1 h -2 v 1 h -1 v 1 h -2 v 1 h -2 v 1 h -2 v 1 h -1 v 1 h -2 v 1 h -2 v 1 h -1 v 1 h -2 v 1 h -1 v 1 h -2 v 1 h -1 v 1 h -2 v 1 h -1 v 1 h -2 v 1 h -1 v 1 h -2 v 1 h -1 v 1 h -2 v 1 h -1 v 1 h -1 v 1 h -2 v 1 h -1 v 1 h -2 v 1 h -1 v 1 h -1 v 1 h -2 v 1 h -1 v 1 h -1 v 1 h -1 v 1 h -1 v 1 h -2 v 1 h -1 v 1 h -1 v 1 h -1 v 1 h -2 v 1 h -1 v 1 h -1 v 1 h -1 v 1 h -2 v 1 h -1 v 1 h -1 v 1 h -1 v 1 h -1 v 1 h -1 v 1 h -1 v 1 h -1 v 1 h -1 v 1 h -1 v 1 h -1 v 1 h -1 v 1 h -1 v 1 h -1 v 1 h -2 v 1 h -1 v 1 h -1 v 1 h -1 v 1 h -1 v 1 h -1 v 1 h -1 v 1 h -1 v 1 h -1 v 1 h -1 v 1 h -1 v 1 h -1 v 1 h -1 v 2 h -1 v 1 h -1 v 1 h -1 v 1 h -1 v 1 h -1 v 1 h -1 v 1 h -1 v 2 h -1 v 1 h -1 v 1 h -1 v 1 h -1 v 1 h -1 v 1 h -1 v 1 h -1 v 2 h -1 v 1 h -1 v 2 h -1 v 1 h -1 v 1 h -1 v 2 h -1 v 1 h -1 v 2 h -1 v 1 h -1 v 1 h -1 v 2 h -1 v 1 h -1 v 1 h -1 v 2 h -1 v 1 h -1 v 2 h -1 v 2 h -1 v 1 h -1 v 2 h -1 v 2 h -1 v 1 h -1 v 2 h -1 v 2 h -1 v 1 h -1 v 2 h -1 v 2 h -1 v 1 h -1 v 2 h -1 v 2 h -1 v 2 h -1 v 2 h -1 v 2 h -1 v 2 h -1 v 2 h -1 v 2 h -1 v 2 h -1 v 1 h -1 v 2 h -1 v 2 h -1 v 2 h -1 v 3 h -1 v 2 h -1 v 2 h -1 v 2 h -1 v 3 h -1 v 2 h -1 v 2 h -1 v 2 h -1 v 2 h -1 v 3 h -1 v 2 h -1 v 3 h -1 v 2 h -1 v 3 h -1 v 2 h -1 v 3 h -1 v 2 h -1 v 3 h -1 v 2 h -1 v 3 h -1 v 3 h -1 v 3 h -1 v 2 h -1 v 3 h -1 v 3 h -1 v 3 h -1 v 3 h -1 v 3 h -1 v 3 h -1 v 3 h -1 v 3 h -1 v 3 h -1 v 3 h -1 v 4 h -1 v 3 h -1 v 3 h -1 v 4 h -1 v 3 h -1 v 4 h -1 v 3 h -1 v 4 h -1 v 3 h -1 v 4 h -1 v 4 h -1 v 4 h -1 v 4 h -1 v 4 h -1 v 4 h -1 v 4 h -1 v 4 h -1 v 5 h -1 v 4 h -1 v 5 h -1 v 4 h -1 v 5 h -1 v 5 h -1 v 5 h -1 v 5 h -1 v 6 h -1 v 5 h -1 v 6 h -1 v 7 h -1 v 8 h -1 v 9 h -1 v 9 h -1 v 9 h -1 v 9 h -1 v 10 h -1 v 9 h -1 v 11 h -1 v 10 h -1 v 10 h -1 v 11 h -1 v 11 h -1 v 11 h -1 v 12 h -1 v 12 h -1 v 12 h -1 v 13 h -1 v 13 h -1 v 14 h -1 v 14 h -1 v 15 h -1 v 16 h -1 v 16 h -1 v 18 h -1 v 18 h -1 v 22 h -1 v 23 h -1 v 29 h -1 v 37 h -1 v 366 h 1 v 37 h 1 v 29 h 1 v 23 h 1 v 21 h 1 v 19 h 1 v 18 h 1 v 16 h 1 v 16 h 1 v 15 h 1 v 14 h 1 v 14 h 1 v 13 h 1 v 12 h 1 v 13 h 1 v 12 h 1 v 11 h 1 v 12 h 1 v 11 h 1 v 10 h 1 v 11 h 1 v 10 h 1 v 10 h 1 v 10 h 1 v 10 h 1 v 9 h 1 v 9 h 1 v 9 h 1 v 9 h 1 v 8 h 1 v 7 h 1 v 5 h 1 v 6 h 1 v 5 h 1 v 6 h 1 v 5 h 1 v 5 h 1 v 4 h 1 v 5 h 1 v 5 h 1 v 4 h 1 v 4 h 1 v 5 h 1 v 4 h 1 v 4 h 1 v 4 h 1 v 4 h 1 v 4 h 1 v 4 h 1 v 3 h 1 v 4 h 1 v 4 h 1 v 3 h 1 v 4 h 1 v 3 h 1 v 4 h 1 v 3 h 1 v 3 h 1 v 3 h 1 v 3 h 1 v 4 h 1 v 3 h 1 v 3 h 1 v 3 h 1 v 3 h 1 v 3 h 1 v 3 h 1 v 2 h 1 v 3 h 1 v 3 h 1 v 3 h 1 v 3 h 1 v 2 h 1 v 3 h 1 v 2 h 1 v 3 h 1 v 3 h 1 v 2 h 1 v 3 h 1 v 2 h 1 v 3 h 1 v 2 h 1 v 2 h 1 v 2 h 1 v 3 h 1 v 2 h 1 v 2 h 1 v 2 h 1 v 3 h 1 v 2 h 1 v 2 h 1 v 2 h 1 v 2 h 1 v 2 h 1 v 2 h 1 v 2 h 1 v 2 h 1 v 2 h 1 v 2 h 1 v 2 h 1 v 2 h 1 v 2 h 1 v 2 h 1 v 2 h 1 v 1 h 1 v 2 h 1 v 2 h 1 v 1 h 1 v 2 h 1 v 2 h 1 v 1 h 1 v 2 h 1 v 2 h 1 v 1 h 1 v 2 h 1 v 2 h 1 v 1 h 1 v 2 h 1 v 1 h 1 v 2 h 1 v 1 h 1 v 1 h 1 v 2 h 1 v 1 h 1 v 2 h 1 v 1 h 1 v 1 h 1 v 2 h 1 v 1 h 1 v 2 h 1 v 1 h 1 v 1 h 1 v 2 h 1 v 1 h 1 v 1 h 1 v 1 h 1 v 1 h 1 v 1 h 1 v 1 h 1 v 1 h 1 v 2 h 1 v 1 h 1 v 1 h 1 v 1 h 1 v 1 h 1 v 1 h 1 v 1 h 1 v 2 h 1 v 1 h 1 v 1 h 1 v 1 h 1 v 1 h 2 v 1 h 1 v 1 h 1 v 1 h 1 v 1 h 1 v 1 h 1 v 1 h 1 v 1 h 1 v 1 h 1 v 1 h 1 v 1 h 1 v 1 h 1 v 1 h 1 v 1 h 1 v 1 h 1 v 1 h 1 v 1 h 1 v 1 h 1 v 1 h 1 v 1 h 1 v 1 h 2 v 1 h 1 v 1 h 1 v 1 h 1 v 1 h 1 v 1 h 2 v 1 h 1 v 1 h 1 v 1 h 1 v 1 h 1 v 1 h 1 v 1 h 2 v 1 h 1 v 1 h 1 v 1 h 1 v 1 h 1 v 1 h 2 v 1 h 1 v 1 h 1 v 1 h 2 v 1 h 1 v 1 h 2 v 1 h 1 v 1 h 1 v 1 h 2 v 1 h 1 v 1 h 1 v 1 h 2 v 1 h 1 v 1 h 2 v 1 h 1 v 1 h 1 v 1 h 2 v 1 h 1 v 1 h 2 v 1 h 2 v 1 h 1 v 1 h 2 v 1 h 1 v 1 h 2 v 1 h 2 v 1 h 1 v 1 h 2 v 1 h 1 v 1 h 2 v 1 h 2 v 1 h 2 v 1 h 1 v 1 h 2 v 1 h 2 v 1 h 2 v 1 h 2 v 1 h 2 v 1 h 1 v 1 h 2 v 1 h 2 v 1 h 2 v 1 h 2 v 1 h 2 v 1 h 3 v 1 h 2 v 1 h 2 v 1 h 2 v 1 h 2 v 1 h 2 v 1 h 3 v 1 h 2 v 1 h 2 v 1 h 3 v 1 h 3 v 1 h 2 v 1 h 3 v 1 h 2 v 1 h 3 v 1 h 2 v 1 h 3 v 1 h 4 v 1 h 3 v 1 h 3 v 1 h 3 v 1 h 3 v 1 h 3 v 1 h 4 v 1 h 4 v 1 h 3 v 1 h 4 v 1 h 4 v 1 h 4 v 1 h 5 v 1 h 4 v 1 h 5 v 1 h 5 v 1 h 6 v 1 h 5 v 1 h 7 v 1 h 7 v 1 h 7 v 1 h 8 v 1 h 9 v 1 h 10 v 1 h 10 v 1 h 10 v 1 h 11 v 1 h 14 v 1 h 15 v 1 h 15 v 1 h 16 v 1 h 16 v 1 h 18 v 1 h 17 v 1 h 18 v 1 h 19 v 1 h 20 v 1 h 21 v 1 h 21 v 1 h 23 v 1 h 23 v 1 h 24 v 1 h 26 v 1 h 27 v 1 h 28 v 1 h 30 v 1 h 32 v 1 h 34 v 1 h 37 v 1 h 39 v 1 h 42 v 1 h 47 v 1 h 52 v 1 h 60 v 1 h 71 v 1 h 94 v 1 h 285 v -1 h 93 v -1 h 71 v -1 h 60 v -1 h 52 v -1 h 47 v -1 h 43 v -1 h 39 v -1 h 36 v -1 h 34 v -1 h 32 v -1 h 30 v -1 h 29 v -1 h 26 v -1 h 26 v -1 h 25 v -1 h 23 v -1 h 22 v -1 h 22 v -1 h 20 v -1 h 20 v -1 h 19 v -1 h 18 v -1 h 18 v -1 h 17 v -1 h 16 v -1 h 16 v -1 h 16 v -1 h 14 v -1 h 15 v -1 h 11 v -1 h 9 v -1 h 11 v -1 h 9 v -1 h 9 v -1 h 8 v -1 h 8 v -1 h 6 v -1 h 7 v -1 h 5 v -1 h 6 v -1 h 6 v -1 h 4 v -1 h 5 v -1 h 4 v -1 h 5 v -1 h 3 v -1 h 4 v -1 h 4 v -1 h 4 v -1 h 3 v -1 h 4 v -1 h 3 v -1 h 3 v -1 h 3 v -1 h 3 v -1 h 3 v -1 h 3 v -1 h 3 v -1 h 2 v -1 h 3 v -1 h 2 v -1 h 3 v -1 h 2 v -1 h 3 v -1 h 3 v -1 h 2 v -1 h 2 v -1 h 2 v -1 h 2 v -1 h 3 v -1 h 2 v -1 h 2 v -1 h 2 v -1 h 2 v -1 h 2 v -1 h 2 v -1 h 2 v -1 h 2 v -1 h 2 v -1 h 2 v -1 h 1 v -1 h 2 v -1 h 2 v -1 h 2 v -1 h 2 v -1 h 2 v -1 h 1 v -1 h 2 v -1 h 2 v -1 h 1 v -1 h 2 v -1 h 1 v -1 h 2 v -1 h 2 v -1 h 1 v -1 h 2 v -1 h 1 v -1 h 2 v -1 h 1 v -1 h 2 v -1 h 1 v -1 h 2 v -1 h 1 v -1 h 2 v -1 h 1 v -1 h 1 v -1 h 2 v -1 h 1 v -1 h 1 v -1 h 2 v -1 h 1 v -1 h 2 v -1 h 1 v -1 h 1 v -1 h 2 v -1 h 1 v -1 h 1 v -1 h 1 v -1 h 2 v -1 h 1 v -1 h 1 v -1 h 1 v -1 h 1 v -1 h 2 v -1 h 1 v -1 h 1 v -1 h 1 v -1 h 1 v -1 h 1 v -1 h 2 v -1 h 1 v -1 h 1 v -1 h 1 v -1 h 1 v -1 h 1 v -1 h 1 v -1 h 1 v -1 h 2 v -1 h 1 v -1 h 1 v -1 h 1 v -1 h 1 v -1 h 1 v -1 h 1 v -1 h 1 v -1 h 1 v -1 h 1 v -1 h 1 v -1 h 1 v -1 h 1 v -1 h 1 v -1 h 1 v -1 h 1 v -1 h 1 v -1 h 1 v -1 h 1 v -1 h 1 v -1 h 1 v -1 h 1 v -2 h 1 v -1 h 1 v -1 h 1 v -1 h 1 v -1 h 1 v -1 h 1 v -1 h 1 v -1 h 1 v -2 h 1 v -1 h 1 v -1 h 1 v -1 h 1 v -1 h 1 v -2 h 1 v -1 h 1 v -1 h 1 v -2 h 1 v -1 h 1 v -2 h 1 v -1 h 1 v -1 h 1 v -2 h 1 v -1 h 1 v -1 h 1 v -2 h 1 v -1 h 1 v -2 h 1 v -1 h 1 v -2 h 1 v -1 h 1 v -2 h 1 v -2 h 1 v -1 h 1 v -2 h 1 v -2 h 1 v -1 h 1 v -2 h 1 v -2 h 1 v -1 h 1 v -2 h 1 v -2 h 1 v -2 h 1 v -2 h 1 v -1 h 1 v -2 h 1 v -2 h 1 v -2 h 1 v -2 h 1 v -2 h 1 v -2 h 1 v -2 h 1 v -2 h 1 v -2 h 1 v -2 h 1 v -2 h 1 v -3 h 1 v -2 h 1 v -2 h 1 v -2 h 1 v -2 h 1 v -3 h 1 v -2 h 1 v -2 h 1 v -2 h 1 v -3 h 1 v -2 h 1 v -3 h 1 v -3 h 1 v -2 h 1 v -3 h 1 v -2 h 1 v -3 h 1 v -2 h 1 v -3 h 1 v -3 h 1 v -3 h 1 v -2 h 1 v -3 h 1 v -3 h 1 v -3 h 1 v -3 h 1 v -3 h 1 v -3 h 1 v -3 h 1 v -3 h 1 v -3 h 1 v -4 h 1 v -3 h 1 v -3 h 1 v -3 h 1 v -4 h 1 v -4 h 1 v -3 h 1 v -4 h 1 v -3 h 1 v -4 h 1 v -4 h 1 v -4 h 1 v -4 h 1 v -3 h 1 v -4 h 1 v -5 h 1 v -4 h 1 v -4 h 1 v -5 h 1 v -4 h 1 v -5 h 1 v -4 h 1 v -5 h 1 v -5 h 1 v -5 h 1 v -6 h 1 v -5 h 1 v -6 h 1 v -6 h 1 v -8 h 1 v -8 h 1 v -9 h 1 v -9 h 1 v -10 h 1 v -9 h 1 v -10 h 1 v -10 h 1 v -10 h 1 v -10 h 1 v -11 h 1 v -11 h 1 v -11 h 1 v -12 h 1 v -11 h 1 v -13 h 1 v -12 h 1 v -13 h 1 v -14 h 1 v -14 h 1 v -14 h 1 v -16 h 1 v -16 h 1 v -17 h 1 v -19 h 1 v -20 h 1 v -22 h 1 v -27 h 1 v -31 h 1 V 845 h -1 v -30 h -1 v -27 h -1 v -22 h -1 v -21 h -1 v -18 h -1 v -18 h -1 v -15 h -1 v -16 h -1 v -14 h -1 v -14 h -1 v -14 h -1 v -13 h -1 v -13 h -1 v -12 h -1 v -12 h -1 v -11 h -1 v -11 h -1 v -11 h -1 v -11 h -1 v -10 h -1 v -10 h -1 v -11 h -1 v -9 h -1 v -10 h -1 v -9 h -1 v -9 h -1 v -9 h -1 v -9 h -1 v -7 h -1 v -6 h -1 v -6 h -1 v -6 h -1 v -5 h -1 v -5 h -1 v -5 h -1 v -5 h -1 v -5 h -1 v -4 h -1 v -5 h -1 v -4 h -1 v -4 h -1 v -5 h -1 v -4 h -1 v -4 h -1 v -4 h -1 v -4 h -1 v -4 h -1 v -4 h -1 v -3 h -1 v -4 h -1 v -3 h -1 v -4 h -1 v -3 h -1 v -4 h -1 v -3 h -1 v -3 h -1 v -4 h -1 v -3 h -1 v -3 h -1 v -3 h -1 v -3 h -1 v -4 h -1 v -2 h -1 v -3 h -1 v -3 h -1 v -3 h -1 v -3 h -1 v -3 h -1 v -3 h -1 v -2 h -1 v -3 h -1 v -3 h -1 v -2 h -1 v -3 h -1 v -2 h -1 v -3 h -1 v -2 h -1 v -3 h -1 v -2 h -1 v -3 h -1 v -2 h -1 v -2 h -1 v -3 h -1 v -2 h -1 v -2 h -1 v -2 h -1 v -3 h -1 v -2 h -1 v -2 h -1 v -2 h -1 v -2 h -1 v -2 h -1 v -2 h -1 v -2 h -1 v -2 h -1 v -2 h -1 v -2 h -1 v -2 h -1 v -2 h -1 v -2 h -1 v -2 h -1 v -2 h -1 v -2 h -1 v -1 h -1 v -2 h -1 v -2 h -1 v -1 h -1 v -2 h -1 v -2 h -1 v -1 h -1 v -2 h -1 v -2 h -1 v -1 h -1 v -2 h -1 v -2 h -1 v -1 h -1 v -2 h -1 v -1 h -1 v -1 h -1 v -2 h -1 v -1 h -1 v -2 h -1 v -1 h -1 v -1 h -1 v -2 h -1 v -1 h -1 v -2 h -1 v -1 h -1 v -1 h -1 v -2 h -1 v -1 h -1 v -1 h -1 v -1 h -1 v -2 h -1 v -1 h -1 v -1 h -1 v -1 h -1 v -1 h -1 v -1 h -1 v -1 h -1 v -1 h -1 v -2 h -1 v -1 h -1 v -1 h -1 v -1 h -1 v -1 h -1 v -1 h -1 v -1 h -1 v -1 h -1 v -1 h -1 v -1 h -1 v -1 h -1 v -1 h -1 v -1 h -1 v -1 h -1 v -1 h -1 v -1 h -1 v -1 h -1 v -1 h -1 v -1 h -1 v -1 h -1 v -1 h -1 v -1 h -1 v -1 h -1 v -1 h -1 v -1 h -1 v -1 h -1 v -1 h -1 v -1 h -2 v -1 h -1 v -1 h -1 v -1 h -1 v -1 h -1 v -1 h -1 v -1 h -2 v -1 h -1 v -1 h -1 v -1 h -1 v -1 h -1 v -1 h -2 v -1 h -1 v -1 h -1 v -1 h -1 v -1 h -1 v -1 h -1 v -1 h -2 v -1 h -1 v -1 h -1 v -1 h -2 v -1 h -1 v -1 h -1 v -1 h -2 v -1 h -1 v -1 h -2 v -1 h -1 v -1 h -1 v -1 h -2 v -1 h -1 v -1 h -1 v -1 h -2 v -1 h -1 v -1 h -1 v -1 h -2 v -1 h -2 v -1 h -1 v -1 h -2 v -1 h -1 v -1 h -2 v -1 h -2 v -1 h -1 v -1 h -2 v -1 h -1 v -1 h -2 v -1 h -2 v -1 h -1 v -1 h -2 v -1 h -2 v -1 h -1 v -1 h -2 v -1 h -2 v -1 h -2 v -1 h -2 v -1 h -2 v -1 h -2 v -1 h -1 v -1 h -2 v -1 h -2 v -1 h -2 v -1 h -2 v -1 h -3 v -1 h -2 v -1 h -2 v -1 h -2 v -1 h -2 v -1 h -2 v -1 h -3 v -1 h -2 v -1 h -2 v -1 h -3 v -1 h -2 v -1 h -3 v -1 h -3 v -1 h -2 v -1 h -3 v -1 h -2 v -1 h -3 v -1 h -3 v -1 h -3 v -1 h -3 v -1 h -3 v -1 h -4 v -1 h -3 v -1 h -3 v -1 h -4 v -1 h -4 v -1 h -3 v -1 h -4 v -1 h -5 v -1 h -4 v -1 h -5 v -1 h -4 v -1 h -5 v -1 h -6 v -1 h -5 v -1 h -7 v -1 h -6 v -1 h -7 v -1 h -8 v -1 h -9 v -1 h -10 v -1 h -10 v -1 h -10 v -1 h -9 v -1 h -14 v -1 h -15 v -1 h -15 v -1 h -16 v -1 h -16 v -1 h -17 v -1 h -17 v -1 h -18 v -1 h -19 v -1 h -19 v -1 h -20 v -1 h -21 v -1 h -22 v -1 h -22 v -1 h -24 v -1 h -25 v -1 h -26 v -1 h -27 v -1 h -28 v -1 h -31 v -1 h -32 V 9 h -34 V 8 h -36 V 7 h -39 V 6 h -42 V 5 h -46 V 4 h -51 V 3 h -57 V 2 h -67 V 1 h -84 V 0" /></g></g></g><g
         id="g36"><g
           clip-path="url(#clipPath42)"
           id="g38"><path
             id="path44"
             style="fill:#100f0d;fill-opacity:1;fill-rule:nonzero;stroke:none"
             d="m 1870,398.809 h -190 v 110 c -72.03,-82.559 -133.09,-124.258 -199.65,-124.258 -58.4,0 -98.95,27.551 -119.26,77.32 -12.34,30.27 -21.09,77.52 -21.09,146.938 v 800.001 h 190 V 658.809 c 0,-42.418 0,-60 0,-70 4.43,-28.071 16.35,-38.321 40.51,-38.321 36.37,0 69.28,31.602 109.49,88.321 v 770.001 h 190 V 398.809" /><path
             id="path46"
             style="fill:#100f0d;fill-opacity:1;fill-rule:nonzero;stroke:none"
             d="m 1010,698.809 c 10,-100 -21.016,-149.618 -80.016,-149.618 -59,0 -89.984,49.618 -79.984,149.618 v 400.001 c -10,100 21,146.87 80,146.87 59,0 90.1,-46.87 80.1,-146.87 z m 190,380.001 c 0,107.93 -21.68,188.98 -60,240 -50.62,69.08 -130,97.36 -210,97.36 -90.551,0 -159.457,-28.28 -210,-97.36 -38.93,-51.02 -59.812,-132.95 -59.812,-240.88 L 660,718.809 C 660,611.48 678.574,537.32 717.504,486.801 768.047,417.93 850,381.441 930,381.441 c 80,0 163.39,36.489 214,105.36 38.32,50.519 56,124.679 56,232.008 v 360.001" /><path
             id="path48"
             style="fill:#100f0d;fill-opacity:1;fill-rule:nonzero;stroke:none"
             d="m 450,948.809 v -550 H 250 v 550 c 0,0 -207.2461,674.311 -250,800.001 H 210 L 350.348,1222.05 490,1748.81 H 700 L 450,948.809" /><path
             id="path50"
             style="fill:#ffffff;fill-opacity:1;fill-rule:nonzero;stroke:none"
             d="m 4400,1129.22 c 0,93.46 25.63,118.95 86.09,118.95 60.02,0 83.91,-27.77 83.91,-120.2 v -109.16 l -170,-0.19 z m 360.35,-260.411 -0.04,204.431 c 0,106.8 -21.03,184.93 -58.88,235.47 -50.75,68.38 -122.84,104.58 -213.66,104.58 -92.42,0 -164.51,-36.2 -216.87,-104.58 -38.46,-50.54 -60.9,-133.1 -60.9,-239.9 V 718.809 c 0,-106.188 24.67,-180.528 63.13,-230.528 52.34,-68.281 124.43,-102.359 219.14,-102.359 94.59,0 168.88,35.758 218.96,108.316 22.01,32.032 36.23,68.344 42.34,108.473 1.63,18.129 6.43,59.418 6.43,117.758 v 28.34 h -189.99 c 0,-72.637 0.32,-115.821 -1.36,-125.688 -10.33,-48.391 -36.31,-72.633 -80.88,-72.633 -62.14,0 -88.39,46.461 -87.77,138.742 v 179.579 h 360.35" /><path
             id="path52"
             style="fill:#ffffff;fill-opacity:1;fill-rule:nonzero;stroke:none"
             d="m 3900,688.809 c 0,-100 -23.57,-138.321 -75.78,-138.321 -29.81,0 -64.15,15.34 -94.43,45.614 l 0.21,606.458 c 30.27,29.88 64.41,45.61 94.22,45.61 52.21,0 75.78,-29.36 75.78,-129.36 z m 21.07,726.041 c -66.6,0 -132.8,-40.96 -191.28,-112.92 l 0.21,436.88 H 3550 V 398.809 h 180 l 0.25,100.679 c 60.49,-74.84 126.45,-113.566 190.82,-113.566 72.09,0 124.77,38.59 148.93,112.887 12.09,42.363 20,107.582 20,200 v 400.001 c 0,94.65 -12.13,159.36 -24.22,199.55 -24.16,74.85 -72.62,116.49 -144.71,116.49" /><path
             id="path54"
             style="fill:#ffffff;fill-opacity:1;fill-rule:nonzero;stroke:none"
             d="m 3400,398.809 h -190 v 110 c -72.03,-82.559 -133.09,-124.258 -199.65,-124.258 -58.4,0 -98.95,27.551 -119.26,77.32 -12.34,30.27 -21.09,77.52 -21.09,146.938 v 790.001 h 190 V 658.809 c 0,-42.418 0,-60 0,-70 4.43,-28.071 16.35,-38.321 40.51,-38.321 36.37,0 69.28,31.602 109.49,88.321 v 760.001 h 190 V 398.809" /><path
             id="path56"
             style="fill:#ffffff;fill-opacity:1;fill-rule:nonzero;stroke:none"
             d="M 2680,398.809 H 2480 V 1548.81 h -210 v 189.79 l 630,0.21 v -190 H 2680 V 398.809" /></g></g></g></g></svg>